<svg xmlns="http://www.w3.org/2000/svg" xmlns:xlink="http://www.w3.org/1999/xlink" width="512" zoomAndPan="magnify" viewBox="0 0 384 383.999986" height="512" preserveAspectRatio="xMidYMid meet" version="1.0"><defs><g/><clipPath id="6c6d33ee8d"><path d="M 0 2.222656 L 381.75 2.222656 L 381.75 383.972656 L 0 383.972656 Z M 0 2.222656 " clip-rule="nonzero"/></clipPath></defs><g fill="#8c6aa6" fill-opacity="1"><g transform="translate(47.444111, 170.436025)"><g><path d="M 79.796875 -33.28125 C 75.648438 -30.175781 71.320312 -27.921875 66.8125 -26.515625 C 62.300781 -25.117188 57.816406 -24.726562 53.359375 -25.34375 C 48.898438 -25.96875 45.0625 -27.890625 41.84375 -31.109375 C 38.9375 -21.878906 36.96875 -12.753906 35.9375 -3.734375 C 35.519531 -2.078125 34.789062 -0.570312 33.75 0.78125 C 31.882812 6.269531 27.789062 9.953125 21.46875 11.828125 C 15.238281 13.585938 9.429688 13.273438 4.046875 10.890625 C 1.554688 9.742188 -0.515625 8.082031 -2.171875 5.90625 C -3.835938 3.726562 -4.671875 1.085938 -4.671875 -2.015625 C 2.484375 -26.804688 9.378906 -47.132812 16.015625 -63 C 17.472656 -66.3125 18.640625 -69.003906 19.515625 -71.078125 C 20.398438 -73.160156 21.203125 -74.925781 21.921875 -76.375 C 22.648438 -77.820312 23.300781 -79.085938 23.875 -80.171875 C 24.445312 -81.265625 25.144531 -82.488281 25.96875 -83.84375 C 27.84375 -86.945312 30 -90.597656 32.4375 -94.796875 C 34.875 -99.003906 36.945312 -102.144531 38.65625 -104.21875 C 40.363281 -106.289062 42.175781 -108.078125 44.09375 -109.578125 C 46.007812 -111.085938 48.132812 -112.515625 50.46875 -113.859375 C 52.800781 -115.203125 55.726562 -116.960938 59.25 -119.140625 C 62.78125 -121.328125 66.539062 -122.648438 70.53125 -123.109375 C 74.53125 -123.578125 78.34375 -123.242188 81.96875 -122.109375 C 89.644531 -119.722656 95.296875 -114.378906 98.921875 -106.078125 C 102.035156 -98.410156 102.554688 -88.09375 100.484375 -75.125 C 97.265625 -55.320312 90.367188 -41.375 79.796875 -33.28125 Z M 47.28125 -47.125 C 55.789062 -49 61.703125 -54.550781 65.015625 -63.78125 C 67.816406 -71.550781 68.390625 -80.363281 66.734375 -90.21875 C 64.347656 -86.175781 62.191406 -81.972656 60.265625 -77.609375 C 58.347656 -73.253906 56.613281 -69.367188 55.0625 -65.953125 C 51.644531 -58.273438 49.050781 -52 47.28125 -47.125 Z M 47.28125 -47.125 "/></g></g></g><g fill="#8c6aa6" fill-opacity="1"><g transform="translate(141.696064, 170.436025)"><g><path d="M 20.53125 -67.359375 C 21.875 -70.773438 25.085938 -73.101562 30.171875 -74.34375 C 34.941406 -75.59375 39.398438 -75.441406 43.546875 -73.890625 C 47.804688 -72.222656 49.726562 -69.523438 49.3125 -65.796875 C 48.164062 -62.171875 46.738281 -57.738281 45.03125 -52.5 C 43.320312 -47.257812 41.6875 -41.890625 40.125 -36.390625 C 35.976562 -22.296875 33.59375 -12.34375 32.96875 -6.53125 C 31.414062 2.800781 28.828125 7.832031 25.203125 8.5625 C 24.160156 8.757812 23.175781 8.910156 22.25 9.015625 C 19.96875 9.117188 18.515625 9.738281 17.890625 10.875 C 17.265625 12.019531 16.222656 12.878906 14.765625 13.453125 C 13.316406 14.023438 11.738281 14.285156 10.03125 14.234375 C 8.320312 14.179688 6.582031 13.765625 4.8125 12.984375 C 3.050781 12.210938 1.550781 11.097656 0.3125 9.640625 C -2.59375 6.117188 -3.164062 1.398438 -1.40625 -4.515625 C 0.257812 -15.816406 4.460938 -30.175781 11.203125 -47.59375 C 14.410156 -56.195312 17.519531 -62.785156 20.53125 -67.359375 Z M 49.9375 -90.6875 C 44.851562 -89.644531 40.726562 -89.953125 37.5625 -91.609375 C 34.40625 -93.273438 32.566406 -95.273438 32.046875 -97.609375 C 31.523438 -99.941406 32.25 -102.351562 34.21875 -104.84375 C 36.5 -107.945312 39.921875 -109.96875 44.484375 -110.90625 C 46.554688 -111.113281 48.054688 -111.21875 48.984375 -111.21875 C 49.921875 -111.21875 51.066406 -111.007812 52.421875 -110.59375 C 55.835938 -110.28125 58.066406 -108.773438 59.109375 -106.078125 C 60.554688 -103.796875 60.679688 -101.203125 59.484375 -98.296875 C 58.296875 -95.398438 55.113281 -92.863281 49.9375 -90.6875 Z M 49.9375 -90.6875 "/></g></g></g><g fill="#d4a24f" fill-opacity="1"><g transform="translate(191.6316, 170.436025)"><g><path d="M 32.96875 5.90625 C 31.726562 8.394531 29.890625 10.597656 27.453125 12.515625 C 25.015625 14.441406 22.578125 15.789062 20.140625 16.5625 C 17.703125 17.34375 16.066406 17.734375 15.234375 17.734375 C 14.410156 17.734375 12.285156 17.472656 8.859375 16.953125 L 8.703125 16.953125 C 8.609375 16.953125 8.457031 16.847656 8.25 16.640625 C 2.851562 14.148438 0.15625 10.78125 0.15625 6.53125 C 0.15625 2.800781 2.070312 -0.929688 5.90625 -4.671875 C 11.09375 -9.640625 16.691406 -11.921875 22.703125 -11.515625 C 23.429688 -11.410156 25.144531 -10.992188 27.84375 -10.265625 C 28.15625 -9.953125 28.363281 -9.796875 28.46875 -9.796875 C 34.375 -5.234375 35.875 0 32.96875 5.90625 Z M 32.96875 5.90625 "/></g></g></g><g fill="#805a9d" fill-opacity="1"><g transform="translate(27.378454, 312.936014)"><g/></g></g><g fill="#805a9d" fill-opacity="1"><g transform="translate(75.904215, 312.936014)"><g/></g></g><g fill="#8c6aa6" fill-opacity="1"><g transform="translate(124.436292, 312.936014)"><g><path d="M 28 -110.4375 C 29.96875 -115.207031 32.765625 -116.921875 36.390625 -115.578125 C 37.429688 -117.859375 38.335938 -119.304688 39.109375 -119.921875 C 39.890625 -120.546875 40.695312 -121.039062 41.53125 -121.40625 C 42.363281 -121.769531 43.242188 -122.15625 44.171875 -122.5625 C 45.109375 -122.976562 46.5625 -123.34375 48.53125 -123.65625 C 50.5 -123.96875 52.675781 -124.148438 55.0625 -124.203125 C 57.445312 -124.253906 59.859375 -124.125 62.296875 -123.8125 C 64.734375 -123.5 66.78125 -122.828125 68.4375 -121.796875 C 72.476562 -119.410156 73.359375 -115.570312 71.078125 -110.28125 C 71.285156 -110.382812 71.234375 -110.28125 70.921875 -109.96875 L 69.53125 -107.328125 L 68.4375 -105.921875 C 67.914062 -105.410156 66.3125 -102.25 63.625 -96.4375 C 61.445312 -92.289062 59.21875 -88.195312 56.9375 -84.15625 C 53.195312 -77.207031 50.914062 -72.75 50.09375 -70.78125 C 53.71875 -72.75 57.914062 -75.597656 62.6875 -79.328125 C 71.707031 -86.273438 77.460938 -90.421875 79.953125 -91.765625 C 82.441406 -93.117188 84.175781 -93.953125 85.15625 -94.265625 C 86.144531 -94.578125 87.101562 -94.65625 88.03125 -94.5 C 88.96875 -94.34375 89.957031 -94.054688 91 -93.640625 L 94.890625 -92.078125 C 97.367188 -91.253906 98.710938 -88.25 98.921875 -83.0625 C 99.023438 -77.976562 97.988281 -74.140625 95.8125 -71.546875 C 86.375 -59.316406 75.75 -51.125 63.9375 -46.96875 C 60.300781 -45.625 56.566406 -44.484375 52.734375 -43.546875 C 58.222656 -42.929688 63.457031 -39.304688 68.4375 -32.671875 C 72.476562 -27.273438 75.40625 -21.722656 77.21875 -16.015625 C 79.039062 -10.316406 80.46875 -6.09375 81.5 -3.34375 C 82.539062 -0.59375 82.984375 1.53125 82.828125 3.03125 C 82.671875 4.53125 81.789062 5.671875 80.1875 6.453125 C 78.582031 7.234375 75.859375 7.984375 72.015625 8.703125 C 70.253906 9.015625 66.625 6.941406 61.125 2.484375 C 58.738281 0.515625 56.195312 -1.632812 53.5 -3.96875 C 50.8125 -6.300781 48.117188 -8.503906 45.421875 -10.578125 C 39.203125 -15.453125 34.847656 -17.992188 32.359375 -18.203125 C 32.148438 -18.203125 31.734375 -18.304688 31.109375 -18.515625 L 28.3125 -11.515625 C 26.851562 -8.085938 25.375 -4.476562 23.875 -0.6875 C 22.375 3.09375 20.585938 6.484375 18.515625 9.484375 C 15.296875 11.660156 11.5625 12.539062 7.3125 12.125 C 2.4375 11.613281 -0.773438 9.644531 -2.328125 6.21875 C -3.367188 3.007812 -1.660156 -6.425781 2.796875 -22.09375 C 5.804688 -33.082031 8.398438 -42.722656 10.578125 -51.015625 C 12.753906 -59.316406 14.617188 -66.1875 16.171875 -71.625 C 17.734375 -77.070312 18.875 -81.320312 19.59375 -84.375 C 20.320312 -87.4375 21.050781 -90.421875 21.78125 -93.328125 C 23.539062 -100.066406 25.613281 -105.769531 28 -110.4375 Z M 28 -110.4375 "/></g></g></g><g fill="#8c6aa6" fill-opacity="1"><g transform="translate(214.488905, 312.936014)"><g><path d="M 20.21875 -68.28125 C 23.125 -71.082031 26.363281 -72.71875 29.9375 -73.1875 C 33.519531 -73.65625 36.679688 -73.265625 39.421875 -72.015625 C 42.171875 -70.773438 44.191406 -68.78125 45.484375 -66.03125 C 46.785156 -63.28125 46.609375 -60.144531 44.953125 -56.625 C 41.429688 -51.4375 38.628906 -45.832031 36.546875 -39.8125 C 34.472656 -33.800781 32.554688 -27.738281 30.796875 -21.625 C 40.335938 -27.632812 48.320312 -36.601562 54.75 -48.53125 C 56.613281 -52.050781 58.632812 -55.628906 60.8125 -59.265625 L 63.15625 -63.625 L 67.8125 -71.078125 C 68.4375 -73.054688 69.523438 -74.328125 71.078125 -74.890625 C 72.640625 -75.460938 74.328125 -75.75 76.140625 -75.75 C 77.953125 -75.75 79.789062 -75.722656 81.65625 -75.671875 C 83.53125 -75.617188 85.242188 -76.109375 86.796875 -77.140625 C 88.347656 -78.179688 90.1875 -78.570312 92.3125 -78.3125 C 94.4375 -78.050781 96.351562 -77.347656 98.0625 -76.203125 C 99.78125 -75.066406 101.078125 -73.695312 101.953125 -72.09375 C 102.835938 -70.488281 102.914062 -68.910156 102.1875 -67.359375 C 97.832031 -58.023438 91.875 -40.65625 84.3125 -15.25 C 82.539062 -9.539062 80.878906 -4.769531 79.328125 -0.9375 C 76.734375 2.28125 73.46875 4.457031 69.53125 5.59375 C 65.59375 6.738281 61.882812 7.078125 58.40625 6.609375 C 54.9375 6.140625 52.160156 4.945312 50.078125 3.03125 C 48.003906 1.113281 47.539062 -1.296875 48.6875 -4.203125 C 45.78125 -1.816406 42.769531 0.359375 39.65625 2.328125 C 36.550781 4.296875 32.796875 5.59375 28.390625 6.21875 C 23.984375 6.84375 19.753906 6.660156 15.703125 5.671875 C 11.660156 4.691406 8.210938 2.800781 5.359375 0 C 2.515625 -2.800781 0.988281 -6.535156 0.78125 -11.203125 C 0.15625 -27.585938 6.632812 -46.613281 20.21875 -68.28125 Z M 20.21875 -68.28125 "/></g></g></g><g fill="#d4a24f" fill-opacity="1"><g transform="translate(308.748778, 312.936014)"><g><path d="M 32.96875 5.90625 C 31.726562 8.394531 29.890625 10.597656 27.453125 12.515625 C 25.015625 14.441406 22.578125 15.789062 20.140625 16.5625 C 17.703125 17.34375 16.066406 17.734375 15.234375 17.734375 C 14.410156 17.734375 12.285156 17.472656 8.859375 16.953125 L 8.703125 16.953125 C 8.609375 16.953125 8.457031 16.847656 8.25 16.640625 C 2.851562 14.148438 0.15625 10.78125 0.15625 6.53125 C 0.15625 2.800781 2.070312 -0.929688 5.90625 -4.671875 C 11.09375 -9.640625 16.691406 -11.921875 22.703125 -11.515625 C 23.429688 -11.410156 25.144531 -10.992188 27.84375 -10.265625 C 28.15625 -9.953125 28.363281 -9.796875 28.46875 -9.796875 C 34.375 -5.234375 35.875 0 32.96875 5.90625 Z M 32.96875 5.90625 "/></g></g></g><g clip-path="url(#6c6d33ee8d)"><path fill="#d4a24f" d="M 11.25 2.222656 L 20.335938 2.222656 C 21 2.222656 21.539062 2.761719 21.539062 3.425781 C 21.539062 8.308594 25.503906 12.273438 30.382812 12.273438 C 35.269531 12.273438 39.230469 8.308594 39.230469 3.425781 C 39.230469 2.761719 39.769531 2.222656 40.433594 2.222656 L 49.515625 2.222656 C 50.183594 2.222656 50.71875 2.761719 50.71875 3.425781 C 50.71875 8.308594 54.683594 12.273438 59.566406 12.273438 C 64.449219 12.273438 68.414062 8.308594 68.414062 3.425781 C 68.414062 2.761719 68.953125 2.222656 69.617188 2.222656 L 78.699219 2.222656 C 79.363281 2.222656 79.902344 2.761719 79.902344 3.425781 C 79.902344 8.308594 83.867188 12.273438 88.75 12.273438 C 93.628906 12.273438 97.59375 8.308594 97.59375 3.425781 C 97.59375 2.761719 98.132812 2.222656 98.796875 2.222656 L 107.882812 2.222656 C 108.546875 2.222656 109.085938 2.761719 109.085938 3.425781 C 109.085938 8.308594 113.046875 12.273438 117.929688 12.273438 C 122.8125 12.273438 126.777344 8.308594 126.777344 3.425781 C 126.777344 2.761719 127.316406 2.222656 127.980469 2.222656 L 137.0625 2.222656 C 137.726562 2.222656 138.265625 2.761719 138.265625 3.425781 C 138.265625 8.308594 142.230469 12.273438 147.113281 12.273438 C 151.996094 12.273438 155.957031 8.308594 155.957031 3.425781 C 155.957031 2.761719 156.496094 2.222656 157.160156 2.222656 L 166.246094 2.222656 C 166.910156 2.222656 167.449219 2.761719 167.449219 3.425781 C 167.449219 8.308594 171.414062 12.273438 176.292969 12.273438 C 181.175781 12.273438 185.140625 8.308594 185.140625 3.425781 C 185.140625 2.761719 185.679688 2.222656 186.34375 2.222656 L 195.425781 2.222656 C 196.09375 2.222656 196.628906 2.761719 196.628906 3.425781 C 196.628906 8.308594 200.59375 12.273438 205.476562 12.273438 C 210.359375 12.273438 214.324219 8.308594 214.324219 3.425781 C 214.324219 2.761719 214.863281 2.222656 215.523438 2.222656 L 224.609375 2.222656 C 225.273438 2.222656 225.8125 2.761719 225.8125 3.425781 C 225.8125 8.308594 229.777344 12.273438 234.660156 12.273438 C 239.539062 12.273438 243.503906 8.308594 243.503906 3.425781 C 243.503906 2.761719 244.042969 2.222656 244.707031 2.222656 L 253.789062 2.222656 C 254.457031 2.222656 254.992188 2.761719 254.992188 3.425781 C 254.992188 8.308594 258.957031 12.273438 263.839844 12.273438 C 268.722656 12.273438 272.6875 8.308594 272.6875 3.425781 C 272.6875 2.761719 273.226562 2.222656 273.890625 2.222656 L 282.972656 2.222656 C 283.636719 2.222656 284.175781 2.761719 284.175781 3.425781 C 284.175781 8.308594 288.140625 12.273438 293.023438 12.273438 C 297.902344 12.273438 301.867188 8.308594 301.867188 3.425781 C 301.867188 2.761719 302.40625 2.222656 303.070312 2.222656 L 312.15625 2.222656 C 312.820312 2.222656 313.359375 2.761719 313.359375 3.425781 C 313.359375 8.308594 317.320312 12.273438 322.203125 12.273438 C 327.085938 12.273438 331.050781 8.308594 331.050781 3.425781 C 331.050781 2.761719 331.589844 2.222656 332.253906 2.222656 L 341.335938 2.222656 C 342 2.222656 342.539062 2.761719 342.539062 3.425781 C 342.539062 8.308594 346.503906 12.273438 351.386719 12.273438 C 356.269531 12.273438 360.230469 8.308594 360.230469 3.425781 C 360.230469 2.761719 360.769531 2.222656 361.433594 2.222656 L 370.519531 2.222656 C 371.183594 2.222656 371.722656 2.761719 371.722656 3.425781 C 371.722656 8.308594 375.6875 12.273438 380.566406 12.273438 C 381.234375 12.273438 381.769531 12.808594 381.769531 13.476562 L 381.769531 22.558594 C 381.769531 23.222656 381.234375 23.761719 380.566406 23.761719 C 375.6875 23.761719 371.722656 27.726562 371.722656 32.609375 C 371.722656 37.492188 375.6875 41.453125 380.566406 41.453125 C 381.234375 41.453125 381.769531 41.992188 381.769531 42.65625 L 381.769531 51.742188 C 381.769531 52.40625 381.234375 52.945312 380.566406 52.945312 C 375.6875 52.945312 371.722656 56.90625 371.722656 61.789062 C 371.722656 66.671875 375.6875 70.636719 380.566406 70.636719 C 381.234375 70.636719 381.769531 71.175781 381.769531 71.839844 L 381.769531 80.921875 C 381.769531 81.589844 381.234375 82.125 380.566406 82.125 C 375.6875 82.125 371.722656 86.089844 371.722656 90.972656 C 371.722656 95.855469 375.6875 99.816406 380.566406 99.816406 C 381.234375 99.816406 381.769531 100.355469 381.769531 101.019531 L 381.769531 110.105469 C 381.769531 110.769531 381.234375 111.308594 380.566406 111.308594 C 375.6875 111.308594 371.722656 115.269531 371.722656 120.15625 C 371.722656 125.035156 375.6875 129 380.566406 129 C 381.234375 129 381.769531 129.539062 381.769531 130.203125 L 381.769531 139.285156 C 381.769531 139.953125 381.234375 140.488281 380.566406 140.488281 C 375.6875 140.488281 371.722656 144.453125 371.722656 149.335938 C 371.722656 154.21875 375.6875 158.183594 380.566406 158.183594 C 381.234375 158.183594 381.769531 158.722656 381.769531 159.382812 L 381.769531 168.46875 C 381.769531 169.132812 381.234375 169.671875 380.566406 169.671875 C 375.6875 169.671875 371.722656 173.636719 371.722656 178.519531 C 371.722656 183.398438 375.6875 187.363281 380.566406 187.363281 C 381.234375 187.363281 381.769531 187.902344 381.769531 188.566406 L 381.769531 197.652344 C 381.769531 198.316406 381.234375 198.855469 380.566406 198.855469 C 375.6875 198.855469 371.722656 202.816406 371.722656 207.699219 C 371.722656 212.582031 375.6875 216.546875 380.566406 216.546875 C 381.234375 216.546875 381.769531 217.085938 381.769531 217.75 L 381.769531 226.832031 C 381.769531 227.496094 381.234375 228.035156 380.566406 228.035156 C 375.6875 228.035156 371.722656 232 371.722656 236.882812 C 371.722656 241.765625 375.6875 245.726562 380.566406 245.726562 C 381.234375 245.726562 381.769531 246.265625 381.769531 246.929688 L 381.769531 256.015625 C 381.769531 256.679688 381.234375 257.21875 380.566406 257.21875 C 375.6875 257.21875 371.722656 261.183594 371.722656 266.0625 C 371.722656 270.945312 375.6875 274.910156 380.566406 274.910156 C 381.234375 274.910156 381.769531 275.449219 381.769531 276.113281 L 381.769531 285.195312 C 381.769531 285.859375 381.234375 286.398438 380.566406 286.398438 C 375.6875 286.398438 371.722656 290.363281 371.722656 295.246094 C 371.722656 300.128906 375.6875 304.089844 380.566406 304.089844 C 381.234375 304.089844 381.769531 304.628906 381.769531 305.292969 L 381.769531 314.378906 C 381.769531 315.042969 381.234375 315.582031 380.566406 315.582031 C 375.6875 315.582031 371.722656 319.546875 371.722656 324.425781 C 371.722656 329.308594 375.6875 333.273438 380.566406 333.273438 C 381.234375 333.273438 381.769531 333.8125 381.769531 334.476562 L 381.769531 343.5625 C 381.769531 344.222656 381.234375 344.761719 380.566406 344.761719 C 375.6875 344.761719 371.722656 348.726562 371.722656 353.609375 C 371.722656 358.492188 375.6875 362.457031 380.566406 362.457031 C 381.234375 362.457031 381.769531 362.992188 381.769531 363.660156 L 381.769531 372.742188 C 381.769531 373.410156 381.234375 373.945312 380.566406 373.945312 C 375.6875 373.945312 371.722656 377.910156 371.722656 382.792969 C 371.722656 383.457031 371.183594 383.996094 370.519531 383.996094 L 361.433594 383.996094 C 360.769531 383.996094 360.230469 383.457031 360.230469 382.792969 C 360.230469 377.910156 356.269531 373.945312 351.386719 373.945312 C 346.503906 373.945312 342.539062 377.910156 342.539062 382.792969 C 342.539062 383.457031 342 383.996094 341.335938 383.996094 L 332.253906 383.996094 C 331.589844 383.996094 331.050781 383.457031 331.050781 382.792969 C 331.050781 377.910156 327.085938 373.945312 322.203125 373.945312 C 317.320312 373.945312 313.359375 377.910156 313.359375 382.792969 C 313.359375 383.457031 312.820312 383.996094 312.15625 383.996094 L 303.070312 383.996094 C 302.40625 383.996094 301.867188 383.457031 301.867188 382.792969 C 301.867188 377.910156 297.902344 373.945312 293.023438 373.945312 C 288.140625 373.945312 284.175781 377.910156 284.175781 382.792969 C 284.175781 383.457031 283.636719 383.996094 282.972656 383.996094 L 273.890625 383.996094 C 273.226562 383.996094 272.6875 383.457031 272.6875 382.792969 C 272.6875 377.910156 268.722656 373.945312 263.839844 373.945312 C 258.957031 373.945312 254.992188 377.910156 254.992188 382.792969 C 254.992188 383.457031 254.457031 383.996094 253.789062 383.996094 L 244.707031 383.996094 C 244.042969 383.996094 243.503906 383.457031 243.503906 382.792969 C 243.503906 377.910156 239.539062 373.945312 234.660156 373.945312 C 229.777344 373.945312 225.8125 377.910156 225.8125 382.792969 C 225.8125 383.457031 225.273438 383.996094 224.609375 383.996094 L 215.523438 383.996094 C 214.863281 383.996094 214.324219 383.457031 214.324219 382.792969 C 214.324219 377.910156 210.359375 373.945312 205.476562 373.945312 C 200.59375 373.945312 196.628906 377.910156 196.628906 382.792969 C 196.628906 383.457031 196.09375 383.996094 195.425781 383.996094 L 186.34375 383.996094 C 185.679688 383.996094 185.140625 383.457031 185.140625 382.792969 C 185.140625 377.910156 181.175781 373.945312 176.292969 373.945312 C 171.414062 373.945312 167.449219 377.910156 167.449219 382.792969 C 167.449219 383.457031 166.910156 383.996094 166.246094 383.996094 L 157.160156 383.996094 C 156.496094 383.996094 155.957031 383.457031 155.957031 382.792969 C 155.957031 377.910156 151.996094 373.945312 147.113281 373.945312 C 142.230469 373.945312 138.265625 377.910156 138.265625 382.792969 C 138.265625 383.457031 137.726562 383.996094 137.0625 383.996094 L 127.980469 383.996094 C 127.316406 383.996094 126.777344 383.457031 126.777344 382.792969 C 126.777344 377.910156 122.8125 373.945312 117.929688 373.945312 C 113.046875 373.945312 109.085938 377.910156 109.085938 382.792969 C 109.085938 383.457031 108.546875 383.996094 107.882812 383.996094 L 98.796875 383.996094 C 98.132812 383.996094 97.59375 383.457031 97.59375 382.792969 C 97.59375 377.910156 93.628906 373.945312 88.75 373.945312 C 83.867188 373.945312 79.902344 377.910156 79.902344 382.792969 C 79.902344 383.457031 79.363281 383.996094 78.699219 383.996094 L 69.617188 383.996094 C 68.953125 383.996094 68.414062 383.457031 68.414062 382.792969 C 68.414062 377.910156 64.449219 373.945312 59.566406 373.945312 C 54.683594 373.945312 50.71875 377.910156 50.71875 382.792969 C 50.71875 383.457031 50.183594 383.996094 49.515625 383.996094 L 40.433594 383.996094 C 39.769531 383.996094 39.230469 383.457031 39.230469 382.792969 C 39.230469 377.910156 35.269531 373.945312 30.382812 373.945312 C 25.503906 373.945312 21.539062 377.910156 21.539062 382.792969 C 21.539062 383.457031 21 383.996094 20.335938 383.996094 L 11.25 383.996094 C 10.585938 383.996094 10.046875 383.457031 10.046875 382.792969 C 10.046875 377.910156 6.085938 373.945312 1.203125 373.945312 C 0.539062 373.945312 0 373.410156 0 372.742188 L 0 363.660156 C 0 362.996094 0.539062 362.457031 1.203125 362.457031 C 6.085938 362.457031 10.046875 358.492188 10.046875 353.609375 C 10.046875 348.726562 6.085938 344.761719 1.203125 344.761719 C 0.539062 344.761719 0 344.222656 0 343.5625 L 0 334.476562 C 0 333.8125 0.539062 333.273438 1.203125 333.273438 C 6.085938 333.273438 10.046875 329.308594 10.046875 324.425781 C 10.046875 319.546875 6.085938 315.582031 1.203125 315.582031 C 0.539062 315.582031 0 315.042969 0 314.378906 L 0 305.292969 C 0 304.628906 0.539062 304.089844 1.203125 304.089844 C 6.085938 304.089844 10.046875 300.128906 10.046875 295.246094 C 10.046875 290.363281 6.085938 286.398438 1.203125 286.398438 C 0.539062 286.398438 0 285.859375 0 285.195312 L 0 276.113281 C 0 275.449219 0.539062 274.910156 1.203125 274.910156 C 6.085938 274.910156 10.046875 270.945312 10.046875 266.0625 C 10.046875 261.183594 6.085938 257.21875 1.203125 257.21875 C 0.539062 257.21875 0 256.679688 0 256.015625 L 0 246.929688 C 0 246.265625 0.539062 245.726562 1.203125 245.726562 C 6.085938 245.726562 10.046875 241.765625 10.046875 236.882812 C 10.046875 232 6.085938 228.035156 1.203125 228.035156 C 0.539062 228.035156 0 227.496094 0 226.832031 L 0 217.75 C 0 217.085938 0.539062 216.546875 1.203125 216.546875 C 6.085938 216.546875 10.046875 212.582031 10.046875 207.699219 C 10.046875 202.816406 6.085938 198.855469 1.203125 198.855469 C 0.539062 198.855469 0 198.316406 0 197.652344 L 0 188.566406 C 0 187.902344 0.539062 187.363281 1.203125 187.363281 C 6.085938 187.363281 10.046875 183.398438 10.046875 178.519531 C 10.046875 173.636719 6.085938 169.671875 1.203125 169.671875 C 0.539062 169.671875 0 169.132812 0 168.46875 L 0 159.382812 C 0 158.722656 0.539062 158.183594 1.203125 158.183594 C 6.085938 158.183594 10.046875 154.21875 10.046875 149.335938 C 10.046875 144.453125 6.085938 140.488281 1.203125 140.488281 C 0.539062 140.488281 0 139.953125 0 139.285156 L 0 130.203125 C 0 129.539062 0.539062 129 1.203125 129 C 6.085938 129 10.046875 125.035156 10.046875 120.15625 C 10.046875 115.269531 6.085938 111.308594 1.203125 111.308594 C 0.539062 111.308594 0 110.769531 0 110.105469 L 0 101.019531 C 0 100.355469 0.539062 99.816406 1.203125 99.816406 C 6.085938 99.816406 10.046875 95.855469 10.046875 90.972656 C 10.046875 86.089844 6.085938 82.125 1.203125 82.125 C 0.539062 82.125 0 81.589844 0 80.921875 L 0 71.839844 C 0 71.175781 0.539062 70.636719 1.203125 70.636719 C 6.085938 70.636719 10.046875 66.671875 10.046875 61.789062 C 10.046875 56.90625 6.085938 52.945312 1.203125 52.945312 C 0.539062 52.945312 0 52.40625 0 51.742188 L 0 42.65625 C 0 41.992188 0.539062 41.453125 1.203125 41.453125 C 6.085938 41.453125 10.046875 37.492188 10.046875 32.609375 C 10.046875 27.726562 6.085938 23.761719 1.203125 23.761719 C 0.539062 23.761719 0 23.222656 0 22.558594 L 0 13.476562 C 0 12.808594 0.539062 12.273438 1.203125 12.273438 C 6.085938 12.273438 10.046875 8.308594 10.046875 3.425781 C 10.046875 2.761719 10.585938 2.222656 11.25 2.222656 Z M 12.390625 4.628906 C 11.832031 9.878906 7.65625 14.054688 2.40625 14.613281 C 2.40625 14.613281 2.40625 21.417969 2.40625 21.417969 C 8.050781 22.019531 12.457031 26.804688 12.457031 32.609375 C 12.457031 38.410156 8.050781 43.195312 2.40625 43.796875 C 2.40625 43.796875 2.40625 50.601562 2.40625 50.601562 C 8.050781 51.203125 12.457031 55.988281 12.457031 61.789062 C 12.457031 67.59375 8.050781 72.378906 2.40625 72.976562 C 2.40625 72.976562 2.40625 79.785156 2.40625 79.785156 C 8.050781 80.386719 12.457031 85.167969 12.457031 90.972656 C 12.457031 96.777344 8.050781 101.558594 2.40625 102.160156 C 2.40625 102.160156 2.40625 108.964844 2.40625 108.964844 C 8.050781 109.566406 12.457031 114.351562 12.457031 120.15625 C 12.457031 125.957031 8.050781 130.742188 2.40625 131.34375 C 2.40625 131.34375 2.40625 138.148438 2.40625 138.148438 C 8.050781 138.75 12.457031 143.53125 12.457031 149.335938 C 12.457031 155.140625 8.050781 159.925781 2.40625 160.523438 C 2.40625 160.523438 2.40625 167.328125 2.40625 167.328125 C 8.050781 167.929688 12.457031 172.714844 12.457031 178.519531 C 12.457031 184.324219 8.050781 189.105469 2.40625 189.707031 C 2.40625 189.707031 2.40625 196.511719 2.40625 196.511719 C 8.050781 197.113281 12.457031 201.894531 12.457031 207.699219 C 12.457031 213.503906 8.050781 218.289062 2.40625 218.890625 C 2.40625 218.890625 2.40625 225.691406 2.40625 225.691406 C 8.050781 226.292969 12.457031 231.078125 12.457031 236.882812 C 12.457031 242.6875 8.050781 247.46875 2.40625 248.070312 C 2.40625 248.070312 2.40625 254.875 2.40625 254.875 C 8.050781 255.476562 12.457031 260.257812 12.457031 266.0625 C 12.457031 271.867188 8.050781 276.652344 2.40625 277.253906 C 2.40625 277.253906 2.40625 284.054688 2.40625 284.054688 C 8.050781 284.65625 12.457031 289.441406 12.457031 295.246094 C 12.457031 301.050781 8.050781 305.832031 2.40625 306.433594 C 2.40625 306.433594 2.40625 313.238281 2.40625 313.238281 C 8.050781 313.839844 12.457031 318.621094 12.457031 324.425781 C 12.457031 330.230469 8.050781 335.015625 2.40625 335.617188 C 2.40625 335.617188 2.40625 342.421875 2.40625 342.421875 C 8.050781 343.019531 12.457031 347.804688 12.457031 353.609375 C 12.457031 359.414062 8.050781 364.199219 2.40625 364.800781 C 2.40625 364.800781 2.40625 371.605469 2.40625 371.605469 C 7.65625 372.164062 11.832031 376.339844 12.390625 381.589844 C 12.390625 381.589844 19.195312 381.589844 19.195312 381.589844 C 19.796875 375.941406 24.582031 371.539062 30.382812 371.539062 C 36.1875 371.539062 40.972656 375.941406 41.574219 381.589844 C 41.574219 381.589844 48.378906 381.589844 48.378906 381.589844 C 48.980469 375.941406 53.761719 371.539062 59.566406 371.539062 C 65.371094 371.539062 70.15625 375.941406 70.757812 381.589844 C 70.757812 381.589844 77.558594 381.589844 77.558594 381.589844 C 78.160156 375.941406 82.945312 371.539062 88.75 371.539062 C 94.554688 371.539062 99.335938 375.941406 99.9375 381.589844 C 99.9375 381.589844 106.742188 381.589844 106.742188 381.589844 C 107.34375 375.941406 112.125 371.539062 117.929688 371.539062 C 123.734375 371.539062 128.519531 375.941406 129.121094 381.589844 C 129.121094 381.589844 135.925781 381.589844 135.925781 381.589844 C 136.523438 375.941406 141.308594 371.539062 147.113281 371.539062 C 152.917969 371.539062 157.699219 375.941406 158.300781 381.589844 C 158.300781 381.589844 165.105469 381.589844 165.105469 381.589844 C 165.707031 375.941406 170.492188 371.539062 176.292969 371.539062 C 182.097656 371.539062 186.882812 375.941406 187.484375 381.589844 C 187.484375 381.589844 194.289062 381.589844 194.289062 381.589844 C 194.890625 375.941406 199.671875 371.539062 205.476562 371.539062 C 211.28125 371.539062 216.0625 375.941406 216.664062 381.589844 C 216.664062 381.589844 223.46875 381.589844 223.46875 381.589844 C 224.070312 375.941406 228.855469 371.539062 234.660156 371.539062 C 240.460938 371.539062 245.246094 375.941406 245.847656 381.589844 C 245.847656 381.589844 252.652344 381.589844 252.652344 381.589844 C 253.253906 375.941406 258.035156 371.539062 263.839844 371.539062 C 269.644531 371.539062 274.429688 375.941406 275.03125 381.589844 C 275.03125 381.589844 281.832031 381.589844 281.832031 381.589844 C 282.433594 375.941406 287.21875 371.539062 293.023438 371.539062 C 298.828125 371.539062 303.609375 375.941406 304.210938 381.589844 C 304.210938 381.589844 311.015625 381.589844 311.015625 381.589844 C 311.617188 375.941406 316.402344 371.539062 322.203125 371.539062 C 328.007812 371.539062 332.792969 375.941406 333.394531 381.589844 C 333.394531 381.589844 340.199219 381.589844 340.199219 381.589844 C 340.800781 375.941406 345.582031 371.539062 351.386719 371.539062 C 357.191406 371.539062 361.972656 375.941406 362.574219 381.589844 C 362.574219 381.589844 369.378906 381.589844 369.378906 381.589844 C 369.9375 376.339844 374.113281 372.164062 379.363281 371.605469 C 379.363281 371.605469 379.363281 364.796875 379.363281 364.796875 C 373.71875 364.195312 369.316406 359.414062 369.316406 353.609375 C 369.316406 347.804688 373.71875 343.019531 379.363281 342.421875 C 379.363281 342.421875 379.363281 335.617188 379.363281 335.617188 C 373.71875 335.015625 369.316406 330.230469 369.316406 324.425781 C 369.316406 318.621094 373.71875 313.839844 379.363281 313.238281 C 379.363281 313.238281 379.363281 306.433594 379.363281 306.433594 C 373.71875 305.832031 369.316406 301.050781 369.316406 295.246094 C 369.316406 289.441406 373.71875 284.65625 379.363281 284.054688 C 379.363281 284.054688 379.363281 277.253906 379.363281 277.253906 C 373.71875 276.652344 369.316406 271.867188 369.316406 266.0625 C 369.316406 260.257812 373.71875 255.476562 379.363281 254.875 C 379.363281 254.875 379.363281 248.070312 379.363281 248.070312 C 373.71875 247.46875 369.316406 242.6875 369.316406 236.882812 C 369.316406 231.078125 373.71875 226.292969 379.363281 225.691406 C 379.363281 225.691406 379.363281 218.890625 379.363281 218.890625 C 373.71875 218.289062 369.316406 213.503906 369.316406 207.699219 C 369.316406 201.894531 373.71875 197.113281 379.363281 196.511719 C 379.363281 196.511719 379.363281 189.707031 379.363281 189.707031 C 373.71875 189.105469 369.316406 184.324219 369.316406 178.519531 C 369.316406 172.714844 373.71875 167.929688 379.363281 167.328125 C 379.363281 167.328125 379.363281 160.523438 379.363281 160.523438 C 373.71875 159.925781 369.316406 155.140625 369.316406 149.335938 C 369.316406 143.53125 373.71875 138.75 379.363281 138.148438 C 379.363281 138.148438 379.363281 131.34375 379.363281 131.34375 C 373.71875 130.742188 369.316406 125.957031 369.316406 120.15625 C 369.316406 114.351562 373.71875 109.566406 379.363281 108.964844 C 379.363281 108.964844 379.363281 102.160156 379.363281 102.160156 C 373.71875 101.558594 369.316406 96.777344 369.316406 90.972656 C 369.316406 85.167969 373.71875 80.386719 379.363281 79.785156 C 379.363281 79.785156 379.363281 72.976562 379.363281 72.976562 C 373.71875 72.378906 369.316406 67.59375 369.316406 61.789062 C 369.316406 55.988281 373.71875 51.203125 379.363281 50.601562 C 379.363281 50.601562 379.363281 43.796875 379.363281 43.796875 C 373.71875 43.195312 369.316406 38.410156 369.316406 32.609375 C 369.316406 26.804688 373.71875 22.019531 379.363281 21.417969 C 379.363281 21.417969 379.363281 14.613281 379.363281 14.613281 C 374.113281 14.054688 369.9375 9.878906 369.378906 4.628906 C 369.378906 4.628906 362.574219 4.628906 362.574219 4.628906 C 361.972656 10.273438 357.191406 14.679688 351.386719 14.679688 C 345.582031 14.679688 340.800781 10.273438 340.199219 4.628906 C 340.199219 4.628906 333.394531 4.628906 333.394531 4.628906 C 332.792969 10.273438 328.007812 14.679688 322.203125 14.679688 C 316.402344 14.679688 311.617188 10.273438 311.015625 4.628906 C 311.015625 4.628906 304.210938 4.628906 304.210938 4.628906 C 303.609375 10.273438 298.828125 14.679688 293.023438 14.679688 C 287.21875 14.679688 282.433594 10.273438 281.832031 4.628906 C 281.832031 4.628906 275.03125 4.628906 275.03125 4.628906 C 274.429688 10.273438 269.644531 14.679688 263.839844 14.679688 C 258.035156 14.679688 253.253906 10.273438 252.652344 4.628906 C 252.652344 4.628906 245.847656 4.628906 245.847656 4.628906 C 245.246094 10.273438 240.460938 14.679688 234.660156 14.679688 C 228.855469 14.679688 224.070312 10.273438 223.46875 4.628906 C 223.46875 4.628906 216.664062 4.628906 216.664062 4.628906 C 216.0625 10.273438 211.28125 14.679688 205.476562 14.679688 C 199.671875 14.679688 194.890625 10.273438 194.289062 4.628906 C 194.289062 4.628906 187.484375 4.628906 187.484375 4.628906 C 186.882812 10.273438 182.097656 14.679688 176.292969 14.679688 C 170.492188 14.679688 165.707031 10.273438 165.105469 4.628906 C 165.105469 4.628906 158.300781 4.628906 158.300781 4.628906 C 157.699219 10.273438 152.917969 14.679688 147.113281 14.679688 C 141.308594 14.679688 136.523438 10.273438 135.925781 4.628906 C 135.925781 4.628906 129.121094 4.628906 129.121094 4.628906 C 128.519531 10.273438 123.734375 14.679688 117.929688 14.679688 C 112.125 14.679688 107.34375 10.273438 106.742188 4.628906 C 106.742188 4.628906 99.9375 4.628906 99.9375 4.628906 C 99.335938 10.273438 94.554688 14.679688 88.75 14.679688 C 82.945312 14.679688 78.160156 10.273438 77.558594 4.628906 C 77.558594 4.628906 70.757812 4.628906 70.757812 4.628906 C 70.15625 10.273438 65.371094 14.679688 59.566406 14.679688 C 53.761719 14.679688 48.980469 10.273438 48.378906 4.628906 C 48.378906 4.628906 41.574219 4.628906 41.574219 4.628906 C 40.972656 10.273438 36.1875 14.679688 30.382812 14.679688 C 24.582031 14.679688 19.796875 10.273438 19.195312 4.628906 Z M 353.464844 31.734375 L 353.464844 354.484375 C 353.464844 355.148438 352.925781 355.6875 352.261719 355.6875 L 29.511719 355.6875 C 28.84375 355.6875 28.308594 355.148438 28.308594 354.484375 L 28.308594 31.734375 C 28.308594 31.070312 28.84375 30.53125 29.511719 30.53125 L 352.261719 30.53125 C 352.925781 30.53125 353.464844 31.070312 353.464844 31.734375 Z M 351.058594 32.9375 L 30.714844 32.9375 L 30.714844 353.28125 L 351.058594 353.28125 Z M 351.058594 32.9375 " fill-opacity="1" fill-rule="evenodd"/></g></svg>