<svg xmlns="http://www.w3.org/2000/svg" xmlns:xlink="http://www.w3.org/1999/xlink" width="512" zoomAndPan="magnify" viewBox="0 0 384 383.999986" height="512" preserveAspectRatio="xMidYMid meet" version="1.0"><defs><g/><clipPath id="211f89eaf1"><path d="M 1.585938 0 L 384 0 L 384 382.5 L 1.585938 382.5 Z M 1.585938 0 " clip-rule="nonzero"/></clipPath><clipPath id="03994c2d80"><path d="M 16.660156 16.660156 L 366.910156 16.660156 L 366.910156 366.910156 L 16.660156 366.910156 Z M 16.660156 16.660156 " clip-rule="nonzero"/></clipPath></defs><g clip-path="url(#211f89eaf1)"><path fill="#ecd3ab" d="M 378.523438 223.976562 C 380.152344 221.492188 381.820312 218.972656 382.90625 216.257812 C 385.039062 211.058594 384.03125 206.289062 379.726562 202.488281 C 377.710938 200.742188 375.421875 199.308594 373.328125 197.640625 C 371.464844 196.128906 369.566406 194.460938 369.449219 191.902344 C 369.175781 186.277344 368.59375 180.578125 372.242188 175.574219 C 373.984375 173.167969 375.5 170.570312 377.050781 168.050781 C 381.78125 160.332031 380.929688 154.863281 374.140625 149.277344 C 373.441406 148.695312 372.667969 148.230469 371.890625 147.84375 C 369.371094 146.523438 369.175781 144.234375 369.136719 141.753906 C 369.136719 138.882812 370.300781 136.519531 372.046875 134.460938 C 374.375 131.746094 376.933594 129.265625 379.378906 126.667969 C 385.117188 120.460938 384.417969 114.566406 379.183594 108.324219 C 377.476562 106.304688 375.109375 104.871094 373.015625 103.203125 C 366.734375 98.277344 366.269531 96.53125 368.59375 88.738281 C 369.640625 85.167969 371.195312 82.222656 374.296875 80.011719 C 376.195312 78.652344 377.710938 76.714844 379.183594 74.851562 C 384.1875 68.609375 384.265625 62.597656 379.53125 56.082031 C 378.332031 54.414062 376.933594 52.824219 375.539062 51.3125 C 373.289062 48.867188 373.015625 46.269531 373.910156 43.089844 C 374.839844 39.832031 376.703125 37.195312 378.332031 34.363281 C 381.121094 29.554688 382.324219 24.394531 381.589844 18.925781 C 380.230469 8.921875 372.164062 5.042969 363.4375 10.121094 C 363.164062 10.277344 362.972656 10.472656 362.699219 10.625 C 356.804688 14.078125 355.410156 13.960938 350.132812 9.425781 C 348.117188 7.679688 346.179688 5.777344 344.121094 4.074219 C 341.796875 2.09375 339.234375 1.902344 336.753906 3.761719 C 334.15625 5.738281 331.597656 7.796875 329.152344 9.96875 C 323.957031 14.582031 322.402344 15.007812 316.507812 12.023438 C 313.601562 10.550781 310.964844 8.570312 308.285156 6.671875 C 306.582031 5.46875 305.144531 3.957031 303.476562 2.714844 C 300.53125 0.503906 297.351562 0.386719 294.324219 2.367188 C 292.347656 3.644531 290.523438 5.234375 288.816406 6.863281 C 286.644531 8.882812 284.589844 11.054688 282.574219 13.226562 C 279.238281 16.792969 275.320312 16.792969 271.09375 15.164062 C 268.261719 14.078125 266.050781 12.023438 263.761719 10.121094 C 255.503906 3.296875 251.234375 3.722656 244.410156 12.023438 C 242.898438 13.847656 241.65625 15.941406 240.144531 17.761719 C 237.234375 21.253906 234.871094 21.757812 230.757812 19.46875 C 228.429688 18.191406 226.257812 16.5625 224.203125 14.855469 C 221.21875 12.410156 218.425781 9.695312 215.515625 7.175781 C 208.960938 1.511719 200.121094 -0.96875 190.851562 4.925781 C 188.097656 6.671875 185.460938 8.609375 182.589844 10.199219 C 176.304688 13.652344 175.492188 13.457031 169.984375 8.84375 C 168.160156 7.332031 166.300781 5.855469 164.285156 4.617188 C 158.503906 1.085938 152.917969 1.902344 147.605469 5.703125 C 146.171875 6.75 144.929688 8.066406 143.574219 9.191406 C 136.242188 15.320312 135.46875 15.320312 128.796875 8.960938 C 127.710938 7.949219 126.742188 6.789062 125.617188 5.816406 C 120.03125 0.929688 113.789062 -0.660156 106.574219 1.902344 C 103.703125 2.910156 101.105469 4.226562 98.972656 6.359375 C 97.304688 8.066406 95.753906 9.851562 94.007812 11.519531 C 90.632812 14.738281 88.578125 15.046875 84.390625 12.914062 C 82.800781 12.101562 81.210938 11.207031 79.851562 10.082031 C 78.066406 8.570312 76.515625 6.710938 74.808594 5.082031 C 67.90625 -1.394531 59.335938 -1.355469 52.507812 5.195312 C 51.230469 6.4375 50.105469 7.835938 48.980469 9.230469 C 45.410156 13.496094 43.859375 13.769531 39.363281 10.550781 C 37.191406 8.996094 35.25 7.097656 33.039062 5.585938 C 26.058594 0.890625 16.984375 1.242188 11.59375 6.59375 C 1.277344 16.753906 0.695312 32.113281 8.296875 41.539062 C 9.613281 43.167969 10.777344 44.988281 12.328125 46.269531 C 17.644531 50.652344 16.363281 54.101562 13.066406 58.5625 C 11.476562 60.695312 9.886719 62.945312 8.839844 65.351562 C 5.773438 72.332031 5.425781 79.195312 10.699219 85.480469 C 11.671875 86.605469 12.484375 87.84375 13.414062 89.007812 C 17.757812 94.59375 17.875 95.988281 14.308594 101.613281 C 13.648438 102.621094 12.910156 103.550781 12.214844 104.523438 C 6.007812 112.898438 4.613281 121.238281 12.289062 129.460938 C 17.527344 135.042969 17.835938 142.414062 12.679688 148.035156 C 10.699219 150.207031 8.957031 152.808594 7.945312 155.523438 C 4.261719 165.375 5.734375 170.222656 11.707031 174.757812 C 13.84375 176.386719 15.78125 178.210938 17.757812 180.070312 C 21.25 183.328125 21.40625 185.617188 18.070312 189.1875 C 16.246094 191.125 14.386719 193.140625 12.175781 194.578125 C 7.519531 197.601562 5.890625 202.257812 4.535156 207.21875 C 2.867188 213.230469 3.679688 218.273438 8.761719 222.460938 C 12.019531 225.140625 14.421875 228.550781 15.820312 232.625 C 16.441406 234.484375 16.285156 236.152344 15.042969 237.628906 C 13.105469 239.875 11.050781 242.007812 9.070312 244.257812 C 2.285156 251.859375 2.050781 260.46875 8.449219 268.5 C 9.730469 270.128906 11.320312 271.523438 12.71875 273.074219 C 16.558594 277.535156 16.632812 280.328125 13.105469 284.902344 C 12.019531 286.300781 10.738281 287.582031 9.730469 289.054688 C 4.222656 297.042969 4.535156 304.375 10.699219 311.898438 C 12.40625 313.953125 14.191406 315.96875 15.820312 318.0625 C 16.519531 318.996094 17.023438 320.082031 17.488281 321.167969 C 17.953125 322.332031 17.914062 323.570312 16.789062 324.386719 C 15.121094 325.589844 13.335938 326.675781 11.632812 327.875 C 8.683594 329.972656 6.316406 332.53125 4.574219 335.789062 C 2.867188 339.007812 2.75 341.992188 4.804688 345.019531 C 6.433594 347.421875 7.984375 349.828125 9.613281 352.308594 C 7.90625 354.210938 6.472656 355.644531 5.191406 357.273438 C -0.0429688 363.945312 0.421875 369.609375 6.667969 375.308594 C 8.179688 376.703125 9.886719 377.945312 11.671875 379.070312 C 18.652344 383.453125 26.757812 383.996094 34.085938 378.140625 C 36.179688 376.472656 38.082031 374.570312 40.097656 372.828125 C 43.976562 369.453125 47.738281 368.988281 52.355469 371.429688 C 53.945312 372.246094 55.378906 373.332031 56.851562 374.339844 C 63.523438 378.953125 70.15625 378.839844 76.789062 374.300781 C 79.734375 372.285156 82.644531 370.226562 85.554688 368.132812 C 93.117188 362.703125 94.046875 362.703125 101.027344 368.289062 C 101.726562 368.832031 102.386719 369.453125 103.082031 370.035156 C 106.535156 372.980469 110.644531 374.570312 114.910156 376.007812 C 120.730469 377.945312 125.382812 376.511719 129.570312 372.398438 C 131.707031 370.34375 133.914062 368.328125 136.242188 366.464844 C 139.773438 363.710938 140.585938 363.828125 143.535156 367.125 C 145.316406 369.101562 146.714844 371.855469 149.273438 372.59375 C 157.1875 374.921875 164.902344 378.410156 173.554688 377.363281 C 176.617188 376.976562 179.292969 376.046875 181.660156 374.027344 C 184.140625 371.894531 186.816406 369.996094 189.066406 367.667969 C 190.929688 365.730469 192.671875 366 194.652344 367.007812 C 195.96875 367.707031 197.171875 368.597656 198.53125 369.179688 C 202.640625 370.925781 206.675781 372.789062 210.902344 374.183594 C 217.027344 376.160156 222.574219 375.074219 227.308594 370.382812 C 228.972656 368.714844 230.835938 367.203125 232.773438 365.84375 C 237.351562 362.703125 238.128906 362.820312 242.859375 366.425781 C 244.0625 367.320312 245.109375 368.445312 246.425781 369.101562 C 255.851562 373.875 265.46875 376.277344 275.164062 369.878906 C 277.375 368.445312 279.199219 366.386719 281.175781 364.605469 C 283.503906 362.511719 285.289062 362.703125 286.996094 365.148438 C 288.042969 366.660156 288.546875 368.289062 288.816406 370.113281 C 289.359375 373.5625 291.84375 375.113281 294.984375 375.542969 C 297.3125 375.851562 299.753906 375.929688 302.121094 375.773438 C 306.773438 375.464844 310.808594 373.835938 313.289062 369.53125 C 314.027344 368.289062 314.453125 366.738281 316.199219 366.425781 C 317.480469 366.929688 317.402344 368.25 317.984375 369.21875 C 321.046875 374.417969 325.15625 376.007812 330.742188 374.144531 C 333.300781 373.292969 335.628906 371.972656 337.605469 370.113281 C 338.925781 368.910156 340.285156 367.746094 341.679688 366.621094 C 343.269531 365.378906 344.976562 365.265625 346.566406 366.621094 C 349.007812 368.792969 351.257812 371.199219 353.820312 373.214844 C 363.011719 380.542969 376.082031 377.09375 380.425781 366.15625 C 382.324219 361.386719 382.207031 356.847656 378.097656 353.046875 C 377.011719 352.039062 375.964844 350.953125 374.957031 349.867188 C 369.566406 343.855469 369.332031 339.976562 373.984375 333.113281 C 375.148438 331.40625 376.625 329.894531 377.789062 328.148438 C 381.78125 322.058594 381.472656 314.03125 376.894531 308.289062 C 375.226562 306.195312 373.25 304.375 371.347656 302.511719 C 368.867188 300.105469 367.664062 297.160156 367.507812 293.746094 C 367.316406 288.199219 368.554688 283.160156 372.589844 279.046875 C 374.257812 277.339844 375.886719 275.597656 377.242188 273.65625 C 381.316406 267.878906 381.238281 261.089844 377.050781 255.351562 C 375.808594 253.683594 374.296875 252.25 372.898438 250.695312 C 370.03125 247.59375 369.214844 244.066406 370.535156 239.992188 C 372.355469 234.292969 375.070312 229.015625 378.40625 224.054688 Z M 367.394531 220.253906 C 364.175781 224.945312 361.652344 230.027344 359.636719 235.300781 C 358.78125 237.511719 358.125 239.835938 357.773438 242.164062 C 357.117188 246.46875 358.085938 250.386719 361.304688 253.644531 C 363.164062 255.546875 364.910156 257.640625 366.308594 259.890625 C 368.984375 264.15625 368.710938 266.40625 365.53125 270.398438 C 364.40625 271.796875 363.125 273.035156 362.078125 274.472656 C 358.355469 279.628906 355.796875 285.292969 355.332031 291.691406 C 354.867188 298.011719 356.726562 303.480469 361.613281 307.632812 C 363.902344 309.570312 366.035156 311.585938 367.78125 314.03125 C 370.1875 317.40625 370.261719 319.421875 367.976562 322.988281 C 367.003906 324.503906 365.726562 325.78125 364.792969 327.292969 C 363.398438 329.542969 361.925781 331.832031 360.878906 334.277344 C 357.386719 342.304688 358.976562 349.363281 365.414062 355.335938 C 366.269531 356.148438 367.277344 356.808594 368.011719 357.738281 C 370.183594 360.339844 370.070312 362.703125 367.898438 364.835938 C 365.300781 367.359375 362.738281 367.398438 360.101562 364.914062 C 358.589844 363.480469 357.308594 361.8125 355.71875 360.453125 C 348.234375 353.898438 341.214844 353.785156 333.300781 359.988281 C 331.945312 361.074219 330.820312 362.550781 328.53125 362.898438 C 327.949219 362.121094 327.175781 361.269531 326.515625 360.339844 C 325.855469 359.367188 325.429688 358.128906 324.613281 357.351562 C 319.300781 352.269531 311.621094 349.671875 307.394531 359.058594 C 306.542969 360.957031 305.535156 362.78125 304.410156 364.566406 C 302.78125 367.164062 300.375 367.242188 298.941406 364.566406 C 296.882812 360.804688 294.054688 357.816406 290.988281 354.984375 C 287.1875 351.457031 283.078125 351.261719 278.890625 354.25 C 276.484375 355.996094 274.273438 358.050781 271.832031 359.71875 C 265.199219 364.292969 255.695312 363.945312 249.335938 359.019531 C 247.707031 357.738281 246.273438 356.1875 244.683594 354.832031 C 241.695312 352.308594 238.398438 351.726562 234.753906 353.433594 C 230.679688 355.375 226.800781 357.546875 223.582031 360.6875 C 218.929688 365.300781 213.734375 365.691406 208.070312 362.859375 C 204.890625 361.269531 201.671875 359.757812 198.566406 358.011719 C 193.566406 355.257812 188.949219 355.527344 184.566406 359.253906 C 183.871094 359.835938 183.210938 360.414062 182.550781 360.996094 C 171.847656 369.722656 159.28125 368.792969 150.167969 358.59375 C 149.585938 357.933594 149.082031 357.15625 148.421875 356.578125 C 143.804688 352.15625 140.277344 351.804688 135 355.566406 C 132.363281 357.46875 129.765625 359.484375 127.554688 361.851562 C 123.988281 365.613281 119.914062 366.117188 115.300781 364.605469 C 112.738281 363.789062 110.296875 362.703125 108.203125 360.921875 C 106.613281 359.601562 104.90625 358.359375 103.316406 357.003906 C 97.847656 352.308594 93.773438 351.496094 84.699219 356.691406 C 81.363281 358.59375 78.378906 361.113281 75.351562 363.519531 C 70.234375 367.589844 65.152344 367.902344 59.839844 363.945312 C 59.140625 363.402344 58.367188 362.976562 57.589844 362.511719 C 48.554688 357.082031 43.085938 357.699219 35.171875 364.796875 C 33.425781 366.386719 31.527344 367.902344 29.511719 369.101562 C 25.050781 371.78125 20.28125 371.546875 15.859375 369.21875 C 11.128906 366.777344 10.351562 364.292969 14.578125 360.378906 C 16.089844 358.980469 17.71875 357.585938 19.039062 356.035156 C 21.597656 353.085938 21.675781 350.371094 19.273438 347.152344 C 17.835938 345.25 16.089844 343.621094 14.539062 341.800781 C 13.183594 340.132812 13.375 338.503906 15.082031 337.183594 C 18.148438 334.820312 21.445312 332.722656 24.351562 330.242188 C 28.464844 326.75 29.433594 322.40625 27.339844 317.40625 C 25.941406 314.070312 23.769531 311.238281 21.328125 308.601562 C 19.699219 306.855469 18.070312 305.109375 16.671875 303.210938 C 14.773438 300.6875 14.890625 300.03125 17.292969 297.199219 C 21.210938 292.582031 24.003906 287.617188 24.234375 281.257812 C 24.46875 275.519531 22.800781 270.75 19.273438 266.480469 C 18.339844 265.320312 17.253906 264.269531 16.324219 263.148438 C 11.902344 257.71875 11.941406 255.738281 16.671875 251.007812 C 17.527344 250.152344 18.535156 249.535156 19.386719 248.71875 C 27.53125 241 25.980469 231.65625 22.335938 225.0625 C 20.472656 221.6875 18.1875 218.585938 15.355469 215.832031 C 11.476562 212.03125 11.320312 210.050781 14.308594 205.824219 C 16.558594 202.644531 19.195312 199.8125 22.453125 197.601562 C 30.789062 192.019531 30.519531 179.839844 23.769531 173.402344 C 21.832031 171.578125 19.699219 169.910156 17.71875 168.089844 C 13.414062 164.09375 13.222656 163.085938 16.128906 158.199219 C 17.175781 156.414062 18.417969 154.746094 19.621094 153.039062 C 22.101562 149.511719 23.265625 145.59375 23.109375 141.289062 C 23.035156 139.195312 22.839844 137.101562 22.917969 135.042969 C 23.148438 130.082031 22.0625 125.542969 18.574219 121.859375 C 16.285156 119.414062 16.710938 117.125 18.417969 114.644531 C 21.480469 110.261719 24.507812 105.957031 25.398438 100.371094 C 26.484375 93.507812 25.632812 87.652344 20.746094 82.183594 C 14.421875 75.125 14.695312 74.503906 19.816406 66.746094 C 21.636719 63.992188 23.617188 61.433594 24.121094 58.058594 C 25.246094 50.613281 24.855469 43.785156 17.566406 39.210938 C 15.003906 37.621094 13.261719 35.097656 11.980469 32.382812 C 10.390625 29.011719 9.925781 25.867188 11.824219 22.183594 C 13.609375 18.808594 15.355469 15.476562 17.449219 12.292969 C 19.234375 9.617188 21.597656 9.113281 24.390625 9.65625 C 26.445312 10.046875 28.308594 10.976562 29.9375 12.410156 C 31.953125 14.15625 34.046875 15.824219 36.179688 17.492188 C 38.820312 19.546875 41.882812 20.671875 45.179688 21.175781 C 48.707031 21.679688 51.65625 20.710938 53.867188 17.839844 C 55.496094 15.707031 56.929688 13.417969 58.792969 11.519531 C 62.242188 7.910156 65.113281 7.875 68.71875 11.246094 C 73.335938 15.550781 78.222656 19.277344 84.117188 21.71875 C 90.402344 24.316406 95.753906 23.191406 100.40625 18.460938 C 101.878906 16.988281 103.277344 15.4375 104.671875 13.882812 C 106.765625 11.558594 109.519531 10.511719 112.390625 9.617188 C 114.875 8.804688 117.121094 9.347656 118.984375 11.132812 C 120.304688 12.332031 121.464844 13.691406 122.785156 14.933594 C 124.296875 16.367188 125.769531 17.839844 127.4375 19.082031 C 134.265625 24.199219 139.34375 24.238281 146.054688 19.082031 C 148.421875 17.296875 150.515625 15.125 152.84375 13.265625 C 156.757812 10.160156 158.039062 10.238281 162.113281 13.613281 C 164.863281 15.902344 167.542969 18.191406 170.761719 19.855469 C 175.027344 22.066406 179.292969 22.417969 183.636719 20.4375 C 186.3125 19.199219 188.910156 17.683594 191.433594 16.132812 C 193.449219 14.894531 195.308594 13.339844 197.367188 12.140625 C 201.941406 9.503906 205.976562 9.8125 209.390625 13.730469 C 214.585938 19.703125 221.878906 22.648438 227.964844 27.304688 C 233.9375 31.839844 239.871094 30.792969 245.1875 24.472656 C 247.28125 21.992188 248.988281 19.160156 251.082031 16.636719 C 252.75 14.621094 254.417969 14.503906 256.433594 16.367188 C 260.15625 19.855469 263.996094 23.039062 268.6875 25.171875 C 270.628906 26.0625 272.527344 26.722656 274.660156 26.878906 C 279.042969 27.226562 282.804688 26.296875 285.792969 22.609375 C 288.234375 19.625 291.027344 16.910156 293.9375 14.390625 C 297.273438 11.519531 298.320312 11.675781 301.734375 14.15625 C 304.640625 16.25 307.394531 18.539062 310.457031 20.324219 C 313.25 21.992188 316.277344 23.386719 319.339844 24.394531 C 323.644531 25.828125 327.523438 24.976562 330.703125 21.410156 C 332.488281 19.390625 334.3125 17.453125 336.328125 15.707031 C 338.65625 13.730469 340.128906 13.882812 342.570312 15.902344 C 344.394531 17.414062 346.101562 19.121094 348.039062 20.476562 C 353.46875 24.238281 358.976562 24.898438 364.445312 20.554688 C 365.375 19.820312 366.230469 18.964844 367.238281 18.34375 C 369.136719 17.179688 371.738281 18.34375 372.007812 20.632812 C 372.164062 22.066406 372.046875 23.582031 371.8125 25.015625 C 371.347656 28.039062 369.566406 30.484375 367.9375 32.964844 C 365.492188 36.765625 363.863281 40.839844 363.089844 45.339844 C 362.429688 49.140625 363.125 52.433594 365.6875 55.304688 C 367.664062 57.515625 369.757812 59.6875 371.582031 62.015625 C 373.871094 64.960938 373.636719 67.210938 370.960938 69.808594 C 369.679688 71.050781 368.285156 72.175781 366.964844 73.378906 C 361.769531 77.953125 359.324219 83.851562 358.820312 90.675781 C 358.277344 98.046875 360.527344 104.132812 366.347656 108.828125 C 368.207031 110.339844 370.070312 111.8125 371.8125 113.402344 C 373.328125 114.800781 373.558594 116.621094 372.28125 118.210938 C 369.644531 121.394531 367.355469 124.84375 364.289062 127.714844 C 355.953125 135.394531 357.117188 148.65625 366.460938 155.40625 C 369.992188 157.964844 370.457031 159.128906 367.820312 162.582031 C 364.136719 167.351562 361.265625 172.507812 359.09375 178.09375 C 355.757812 186.703125 357.890625 196.207031 364.71875 202.488281 C 366.035156 203.691406 367.546875 204.660156 368.90625 205.824219 C 372.824219 209.121094 373.171875 211.332031 370.339844 215.792969 C 369.371094 217.304688 368.246094 218.660156 367.238281 220.175781 Z M 367.394531 220.253906 " fill-opacity="1" fill-rule="nonzero"/></g><g fill="#8c6aa6" fill-opacity="1"><g transform="translate(47.444111, 170.436025)"><g><path d="M 79.796875 -33.28125 C 75.648438 -30.175781 71.320312 -27.921875 66.8125 -26.515625 C 62.300781 -25.117188 57.816406 -24.726562 53.359375 -25.34375 C 48.898438 -25.96875 45.0625 -27.890625 41.84375 -31.109375 C 38.9375 -21.878906 36.96875 -12.753906 35.9375 -3.734375 C 35.519531 -2.078125 34.789062 -0.570312 33.75 0.78125 C 31.882812 6.269531 27.789062 9.953125 21.46875 11.828125 C 15.238281 13.585938 9.429688 13.273438 4.046875 10.890625 C 1.554688 9.742188 -0.515625 8.082031 -2.171875 5.90625 C -3.835938 3.726562 -4.671875 1.085938 -4.671875 -2.015625 C 2.484375 -26.804688 9.378906 -47.132812 16.015625 -63 C 17.472656 -66.3125 18.640625 -69.003906 19.515625 -71.078125 C 20.398438 -73.160156 21.203125 -74.925781 21.921875 -76.375 C 22.648438 -77.820312 23.300781 -79.085938 23.875 -80.171875 C 24.445312 -81.265625 25.144531 -82.488281 25.96875 -83.84375 C 27.84375 -86.945312 30 -90.597656 32.4375 -94.796875 C 34.875 -99.003906 36.945312 -102.144531 38.65625 -104.21875 C 40.363281 -106.289062 42.175781 -108.078125 44.09375 -109.578125 C 46.007812 -111.085938 48.132812 -112.515625 50.46875 -113.859375 C 52.800781 -115.203125 55.726562 -116.960938 59.25 -119.140625 C 62.78125 -121.328125 66.539062 -122.648438 70.53125 -123.109375 C 74.53125 -123.578125 78.34375 -123.242188 81.96875 -122.109375 C 89.644531 -119.722656 95.296875 -114.378906 98.921875 -106.078125 C 102.035156 -98.410156 102.554688 -88.09375 100.484375 -75.125 C 97.265625 -55.320312 90.367188 -41.375 79.796875 -33.28125 Z M 47.28125 -47.125 C 55.789062 -49 61.703125 -54.550781 65.015625 -63.78125 C 67.816406 -71.550781 68.390625 -80.363281 66.734375 -90.21875 C 64.347656 -86.175781 62.191406 -81.972656 60.265625 -77.609375 C 58.347656 -73.253906 56.613281 -69.367188 55.0625 -65.953125 C 51.644531 -58.273438 49.050781 -52 47.28125 -47.125 Z M 47.28125 -47.125 "/></g></g></g><g fill="#8c6aa6" fill-opacity="1"><g transform="translate(141.696064, 170.436025)"><g><path d="M 20.53125 -67.359375 C 21.875 -70.773438 25.085938 -73.101562 30.171875 -74.34375 C 34.941406 -75.59375 39.398438 -75.441406 43.546875 -73.890625 C 47.804688 -72.222656 49.726562 -69.523438 49.3125 -65.796875 C 48.164062 -62.171875 46.738281 -57.738281 45.03125 -52.5 C 43.320312 -47.257812 41.6875 -41.890625 40.125 -36.390625 C 35.976562 -22.296875 33.59375 -12.34375 32.96875 -6.53125 C 31.414062 2.800781 28.828125 7.832031 25.203125 8.5625 C 24.160156 8.757812 23.175781 8.910156 22.25 9.015625 C 19.96875 9.117188 18.515625 9.738281 17.890625 10.875 C 17.265625 12.019531 16.222656 12.878906 14.765625 13.453125 C 13.316406 14.023438 11.738281 14.285156 10.03125 14.234375 C 8.320312 14.179688 6.582031 13.765625 4.8125 12.984375 C 3.050781 12.210938 1.550781 11.097656 0.3125 9.640625 C -2.59375 6.117188 -3.164062 1.398438 -1.40625 -4.515625 C 0.257812 -15.816406 4.460938 -30.175781 11.203125 -47.59375 C 14.410156 -56.195312 17.519531 -62.785156 20.53125 -67.359375 Z M 49.9375 -90.6875 C 44.851562 -89.644531 40.726562 -89.953125 37.5625 -91.609375 C 34.40625 -93.273438 32.566406 -95.273438 32.046875 -97.609375 C 31.523438 -99.941406 32.25 -102.351562 34.21875 -104.84375 C 36.5 -107.945312 39.921875 -109.96875 44.484375 -110.90625 C 46.554688 -111.113281 48.054688 -111.21875 48.984375 -111.21875 C 49.921875 -111.21875 51.066406 -111.007812 52.421875 -110.59375 C 55.835938 -110.28125 58.066406 -108.773438 59.109375 -106.078125 C 60.554688 -103.796875 60.679688 -101.203125 59.484375 -98.296875 C 58.296875 -95.398438 55.113281 -92.863281 49.9375 -90.6875 Z M 49.9375 -90.6875 "/></g></g></g><g fill="#d4a24f" fill-opacity="1"><g transform="translate(191.6316, 170.436025)"><g><path d="M 32.96875 5.90625 C 31.726562 8.394531 29.890625 10.597656 27.453125 12.515625 C 25.015625 14.441406 22.578125 15.789062 20.140625 16.5625 C 17.703125 17.34375 16.066406 17.734375 15.234375 17.734375 C 14.410156 17.734375 12.285156 17.472656 8.859375 16.953125 L 8.703125 16.953125 C 8.609375 16.953125 8.457031 16.847656 8.25 16.640625 C 2.851562 14.148438 0.15625 10.78125 0.15625 6.53125 C 0.15625 2.800781 2.070312 -0.929688 5.90625 -4.671875 C 11.09375 -9.640625 16.691406 -11.921875 22.703125 -11.515625 C 23.429688 -11.410156 25.144531 -10.992188 27.84375 -10.265625 C 28.15625 -9.953125 28.363281 -9.796875 28.46875 -9.796875 C 34.375 -5.234375 35.875 0 32.96875 5.90625 Z M 32.96875 5.90625 "/></g></g></g><g fill="#805a9d" fill-opacity="1"><g transform="translate(27.378454, 312.936014)"><g/></g></g><g fill="#805a9d" fill-opacity="1"><g transform="translate(75.904215, 312.936014)"><g/></g></g><g fill="#8c6aa6" fill-opacity="1"><g transform="translate(124.436292, 312.936014)"><g><path d="M 28 -110.4375 C 29.96875 -115.207031 32.765625 -116.921875 36.390625 -115.578125 C 37.429688 -117.859375 38.335938 -119.304688 39.109375 -119.921875 C 39.890625 -120.546875 40.695312 -121.039062 41.53125 -121.40625 C 42.363281 -121.769531 43.242188 -122.15625 44.171875 -122.5625 C 45.109375 -122.976562 46.5625 -123.34375 48.53125 -123.65625 C 50.5 -123.96875 52.675781 -124.148438 55.0625 -124.203125 C 57.445312 -124.253906 59.859375 -124.125 62.296875 -123.8125 C 64.734375 -123.5 66.78125 -122.828125 68.4375 -121.796875 C 72.476562 -119.410156 73.359375 -115.570312 71.078125 -110.28125 C 71.285156 -110.382812 71.234375 -110.28125 70.921875 -109.96875 L 69.53125 -107.328125 L 68.4375 -105.921875 C 67.914062 -105.410156 66.3125 -102.25 63.625 -96.4375 C 61.445312 -92.289062 59.21875 -88.195312 56.9375 -84.15625 C 53.195312 -77.207031 50.914062 -72.75 50.09375 -70.78125 C 53.71875 -72.75 57.914062 -75.597656 62.6875 -79.328125 C 71.707031 -86.273438 77.460938 -90.421875 79.953125 -91.765625 C 82.441406 -93.117188 84.175781 -93.953125 85.15625 -94.265625 C 86.144531 -94.578125 87.101562 -94.65625 88.03125 -94.5 C 88.96875 -94.34375 89.957031 -94.054688 91 -93.640625 L 94.890625 -92.078125 C 97.367188 -91.253906 98.710938 -88.25 98.921875 -83.0625 C 99.023438 -77.976562 97.988281 -74.140625 95.8125 -71.546875 C 86.375 -59.316406 75.75 -51.125 63.9375 -46.96875 C 60.300781 -45.625 56.566406 -44.484375 52.734375 -43.546875 C 58.222656 -42.929688 63.457031 -39.304688 68.4375 -32.671875 C 72.476562 -27.273438 75.40625 -21.722656 77.21875 -16.015625 C 79.039062 -10.316406 80.46875 -6.09375 81.5 -3.34375 C 82.539062 -0.59375 82.984375 1.53125 82.828125 3.03125 C 82.671875 4.53125 81.789062 5.671875 80.1875 6.453125 C 78.582031 7.234375 75.859375 7.984375 72.015625 8.703125 C 70.253906 9.015625 66.625 6.941406 61.125 2.484375 C 58.738281 0.515625 56.195312 -1.632812 53.5 -3.96875 C 50.8125 -6.300781 48.117188 -8.503906 45.421875 -10.578125 C 39.203125 -15.453125 34.847656 -17.992188 32.359375 -18.203125 C 32.148438 -18.203125 31.734375 -18.304688 31.109375 -18.515625 L 28.3125 -11.515625 C 26.851562 -8.085938 25.375 -4.476562 23.875 -0.6875 C 22.375 3.09375 20.585938 6.484375 18.515625 9.484375 C 15.296875 11.660156 11.5625 12.539062 7.3125 12.125 C 2.4375 11.613281 -0.773438 9.644531 -2.328125 6.21875 C -3.367188 3.007812 -1.660156 -6.425781 2.796875 -22.09375 C 5.804688 -33.082031 8.398438 -42.722656 10.578125 -51.015625 C 12.753906 -59.316406 14.617188 -66.1875 16.171875 -71.625 C 17.734375 -77.070312 18.875 -81.320312 19.59375 -84.375 C 20.320312 -87.4375 21.050781 -90.421875 21.78125 -93.328125 C 23.539062 -100.066406 25.613281 -105.769531 28 -110.4375 Z M 28 -110.4375 "/></g></g></g><g fill="#8c6aa6" fill-opacity="1"><g transform="translate(214.488905, 312.936014)"><g><path d="M 20.21875 -68.28125 C 23.125 -71.082031 26.363281 -72.71875 29.9375 -73.1875 C 33.519531 -73.65625 36.679688 -73.265625 39.421875 -72.015625 C 42.171875 -70.773438 44.191406 -68.78125 45.484375 -66.03125 C 46.785156 -63.28125 46.609375 -60.144531 44.953125 -56.625 C 41.429688 -51.4375 38.628906 -45.832031 36.546875 -39.8125 C 34.472656 -33.800781 32.554688 -27.738281 30.796875 -21.625 C 40.335938 -27.632812 48.320312 -36.601562 54.75 -48.53125 C 56.613281 -52.050781 58.632812 -55.628906 60.8125 -59.265625 L 63.15625 -63.625 L 67.8125 -71.078125 C 68.4375 -73.054688 69.523438 -74.328125 71.078125 -74.890625 C 72.640625 -75.460938 74.328125 -75.75 76.140625 -75.75 C 77.953125 -75.75 79.789062 -75.722656 81.65625 -75.671875 C 83.53125 -75.617188 85.242188 -76.109375 86.796875 -77.140625 C 88.347656 -78.179688 90.1875 -78.570312 92.3125 -78.3125 C 94.4375 -78.050781 96.351562 -77.347656 98.0625 -76.203125 C 99.78125 -75.066406 101.078125 -73.695312 101.953125 -72.09375 C 102.835938 -70.488281 102.914062 -68.910156 102.1875 -67.359375 C 97.832031 -58.023438 91.875 -40.65625 84.3125 -15.25 C 82.539062 -9.539062 80.878906 -4.769531 79.328125 -0.9375 C 76.734375 2.28125 73.46875 4.457031 69.53125 5.59375 C 65.59375 6.738281 61.882812 7.078125 58.40625 6.609375 C 54.9375 6.140625 52.160156 4.945312 50.078125 3.03125 C 48.003906 1.113281 47.539062 -1.296875 48.6875 -4.203125 C 45.78125 -1.816406 42.769531 0.359375 39.65625 2.328125 C 36.550781 4.296875 32.796875 5.59375 28.390625 6.21875 C 23.984375 6.84375 19.753906 6.660156 15.703125 5.671875 C 11.660156 4.691406 8.210938 2.800781 5.359375 0 C 2.515625 -2.800781 0.988281 -6.535156 0.78125 -11.203125 C 0.15625 -27.585938 6.632812 -46.613281 20.21875 -68.28125 Z M 20.21875 -68.28125 "/></g></g></g><g fill="#d4a24f" fill-opacity="1"><g transform="translate(308.748778, 312.936014)"><g><path d="M 32.96875 5.90625 C 31.726562 8.394531 29.890625 10.597656 27.453125 12.515625 C 25.015625 14.441406 22.578125 15.789062 20.140625 16.5625 C 17.703125 17.34375 16.066406 17.734375 15.234375 17.734375 C 14.410156 17.734375 12.285156 17.472656 8.859375 16.953125 L 8.703125 16.953125 C 8.609375 16.953125 8.457031 16.847656 8.25 16.640625 C 2.851562 14.148438 0.15625 10.78125 0.15625 6.53125 C 0.15625 2.800781 2.070312 -0.929688 5.90625 -4.671875 C 11.09375 -9.640625 16.691406 -11.921875 22.703125 -11.515625 C 23.429688 -11.410156 25.144531 -10.992188 27.84375 -10.265625 C 28.15625 -9.953125 28.363281 -9.796875 28.46875 -9.796875 C 34.375 -5.234375 35.875 0 32.96875 5.90625 Z M 32.96875 5.90625 "/></g></g></g><g clip-path="url(#03994c2d80)"><path fill="#ecd3ab" d="M 361.683594 221.671875 C 363.171875 219.398438 364.699219 217.089844 365.691406 214.605469 C 367.644531 209.847656 366.722656 205.484375 362.78125 202.003906 C 360.9375 200.40625 358.84375 199.09375 356.925781 197.566406 C 355.222656 196.183594 353.480469 194.65625 353.375 192.3125 C 353.125 187.164062 352.59375 181.945312 355.929688 177.367188 C 357.527344 175.167969 358.914062 172.789062 360.332031 170.480469 C 364.664062 163.414062 363.882812 158.410156 357.671875 153.296875 C 357.03125 152.765625 356.320312 152.339844 355.613281 151.984375 C 353.304688 150.777344 353.125 148.683594 353.089844 146.410156 C 353.089844 143.785156 354.15625 141.617188 355.753906 139.738281 C 357.882812 137.253906 360.226562 134.980469 362.460938 132.601562 C 367.714844 126.921875 367.078125 121.527344 362.285156 115.8125 C 360.722656 113.964844 358.558594 112.652344 356.640625 111.125 C 350.890625 106.617188 350.464844 105.019531 352.59375 97.882812 C 353.550781 94.617188 354.972656 91.917969 357.8125 89.894531 C 359.550781 88.652344 360.9375 86.878906 362.285156 85.175781 C 366.863281 79.460938 366.9375 73.957031 362.605469 67.992188 C 361.503906 66.464844 360.226562 65.011719 358.949219 63.625 C 356.890625 61.390625 356.640625 59.011719 357.457031 56.101562 C 358.308594 53.117188 360.011719 50.703125 361.503906 48.113281 C 364.058594 43.710938 365.160156 38.988281 364.484375 33.984375 C 363.242188 24.824219 355.859375 21.273438 347.871094 25.925781 C 347.625 26.066406 347.445312 26.246094 347.199219 26.386719 C 341.800781 29.546875 340.523438 29.441406 335.695312 25.285156 C 333.851562 23.6875 332.074219 21.949219 330.195312 20.386719 C 328.0625 18.578125 325.71875 18.398438 323.449219 20.101562 C 321.070312 21.914062 318.726562 23.796875 316.492188 25.785156 C 311.734375 30.007812 310.3125 30.398438 304.917969 27.664062 C 302.253906 26.316406 299.839844 24.503906 297.390625 22.765625 C 295.828125 21.664062 294.515625 20.28125 292.988281 19.144531 C 290.292969 17.121094 287.382812 17.015625 284.613281 18.824219 C 282.800781 19.996094 281.132812 21.453125 279.570312 22.945312 C 277.582031 24.789062 275.703125 26.777344 273.855469 28.765625 C 270.800781 32.03125 267.21875 32.03125 263.347656 30.539062 C 260.757812 29.546875 258.734375 27.664062 256.636719 25.925781 C 249.078125 19.675781 245.171875 20.066406 238.921875 27.664062 C 237.539062 29.332031 236.402344 31.25 235.019531 32.917969 C 232.355469 36.113281 230.191406 36.574219 226.429688 34.480469 C 224.296875 33.308594 222.308594 31.820312 220.429688 30.257812 C 217.695312 28.019531 215.140625 25.535156 212.476562 23.226562 C 206.476562 18.042969 198.382812 15.773438 189.898438 21.167969 C 187.378906 22.765625 184.964844 24.539062 182.335938 25.996094 C 176.585938 29.15625 175.839844 28.976562 170.800781 24.753906 C 169.132812 23.371094 167.425781 22.019531 165.582031 20.882812 C 160.292969 17.652344 155.179688 18.398438 150.316406 21.878906 C 149.003906 22.835938 147.867188 24.042969 146.625 25.074219 C 139.914062 30.683594 139.203125 30.683594 133.097656 24.859375 C 132.105469 23.9375 131.21875 22.871094 130.1875 21.984375 C 125.074219 17.511719 119.359375 16.054688 112.757812 18.398438 C 110.128906 19.324219 107.753906 20.53125 105.800781 22.480469 C 104.273438 24.042969 102.851562 25.675781 101.253906 27.203125 C 98.167969 30.148438 96.285156 30.433594 92.453125 28.480469 C 90.996094 27.734375 89.539062 26.917969 88.296875 25.890625 C 86.664062 24.503906 85.246094 22.800781 83.683594 21.308594 C 77.363281 15.382812 69.519531 15.417969 63.269531 21.417969 C 62.101562 22.554688 61.070312 23.832031 60.039062 25.109375 C 56.773438 29.015625 55.355469 29.261719 51.238281 26.316406 C 49.25 24.894531 47.472656 23.15625 45.449219 21.773438 C 39.058594 17.476562 30.753906 17.796875 25.820312 22.695312 C 16.375 31.996094 15.84375 46.054688 22.800781 54.679688 C 24.007812 56.171875 25.074219 57.839844 26.492188 59.011719 C 31.355469 63.023438 30.183594 66.183594 27.167969 70.265625 C 25.710938 72.21875 24.257812 74.277344 23.296875 76.476562 C 20.492188 82.867188 20.175781 89.152344 25.003906 94.902344 C 25.890625 95.929688 26.636719 97.066406 27.488281 98.132812 C 31.464844 103.242188 31.570312 104.523438 28.304688 109.667969 C 27.699219 110.59375 27.027344 111.445312 26.386719 112.332031 C 20.707031 120 19.429688 127.632812 26.457031 135.15625 C 31.25 140.269531 31.535156 147.015625 26.8125 152.164062 C 25.003906 154.152344 23.40625 156.527344 22.480469 159.015625 C 19.109375 168.03125 20.457031 172.46875 25.925781 176.621094 C 27.878906 178.113281 29.652344 179.78125 31.464844 181.484375 C 34.660156 184.46875 34.800781 186.5625 31.746094 189.828125 C 30.078125 191.601562 28.375 193.449219 26.351562 194.761719 C 22.089844 197.53125 20.601562 201.792969 19.359375 206.335938 C 17.832031 211.835938 18.578125 216.453125 23.226562 220.285156 C 26.210938 222.734375 28.410156 225.859375 29.6875 229.585938 C 30.257812 231.292969 30.113281 232.816406 28.976562 234.167969 C 27.203125 236.226562 25.320312 238.179688 23.511719 240.238281 C 17.300781 247.195312 17.085938 255.074219 22.945312 262.425781 C 24.113281 263.914062 25.570312 265.195312 26.847656 266.613281 C 30.363281 270.695312 30.433594 273.253906 27.203125 277.441406 C 26.210938 278.71875 25.039062 279.890625 24.113281 281.238281 C 19.074219 288.550781 19.359375 295.261719 25.003906 302.148438 C 26.5625 304.03125 28.199219 305.875 29.6875 307.792969 C 30.328125 308.644531 30.789062 309.640625 31.214844 310.632812 C 31.640625 311.699219 31.605469 312.835938 30.574219 313.578125 C 29.050781 314.679688 27.417969 315.675781 25.855469 316.773438 C 23.15625 318.691406 20.992188 321.035156 19.394531 324.015625 C 17.832031 326.964844 17.726562 329.695312 19.605469 332.464844 C 21.097656 334.667969 22.515625 336.867188 24.007812 339.140625 C 22.445312 340.878906 21.132812 342.191406 19.960938 343.683594 C 15.167969 349.789062 15.59375 354.972656 21.308594 360.191406 C 22.695312 361.46875 24.257812 362.605469 25.890625 363.632812 C 32.28125 367.644531 39.699219 368.144531 46.410156 362.78125 C 48.324219 361.253906 50.066406 359.515625 51.910156 357.917969 C 55.460938 354.832031 58.90625 354.40625 63.128906 356.640625 C 64.585938 357.386719 65.898438 358.378906 67.246094 359.304688 C 73.351562 363.527344 79.421875 363.421875 85.492188 359.269531 C 88.191406 357.421875 90.855469 355.539062 93.515625 353.625 C 100.4375 348.652344 101.292969 348.652344 107.679688 353.765625 C 108.320312 354.261719 108.921875 354.832031 109.5625 355.363281 C 112.722656 358.0625 116.484375 359.515625 120.390625 360.828125 C 125.714844 362.605469 129.976562 361.292969 133.808594 357.527344 C 135.761719 355.648438 137.785156 353.800781 139.914062 352.097656 C 143.144531 349.578125 143.890625 349.683594 146.589844 352.699219 C 148.222656 354.511719 149.5 357.03125 151.84375 357.707031 C 159.085938 359.835938 166.148438 363.03125 174.066406 362.074219 C 176.871094 361.71875 179.320312 360.867188 181.484375 359.019531 C 183.757812 357.066406 186.207031 355.328125 188.265625 353.199219 C 189.96875 351.421875 191.566406 351.671875 193.378906 352.59375 C 194.585938 353.234375 195.683594 354.050781 196.925781 354.582031 C 200.691406 356.179688 204.382812 357.882812 208.253906 359.160156 C 213.859375 360.972656 218.9375 359.976562 223.269531 355.683594 C 224.792969 354.15625 226.5 352.769531 228.273438 351.527344 C 232.460938 348.652344 233.171875 348.761719 237.503906 352.0625 C 238.605469 352.878906 239.5625 353.90625 240.769531 354.511719 C 249.394531 358.878906 258.199219 361.078125 267.074219 355.222656 C 269.097656 353.90625 270.765625 352.027344 272.578125 350.394531 C 274.707031 348.476562 276.339844 348.652344 277.902344 350.890625 C 278.859375 352.273438 279.324219 353.765625 279.570312 355.433594 C 280.066406 358.59375 282.339844 360.011719 285.214844 360.402344 C 287.34375 360.6875 289.582031 360.757812 291.746094 360.617188 C 296.007812 360.332031 299.699219 358.84375 301.972656 354.902344 C 302.644531 353.765625 303.035156 352.34375 304.632812 352.0625 C 305.804688 352.523438 305.734375 353.730469 306.265625 354.617188 C 309.070312 359.375 312.835938 360.828125 317.945312 359.125 C 320.289062 358.34375 322.417969 357.136719 324.230469 355.433594 C 325.4375 354.332031 326.679688 353.269531 327.957031 352.238281 C 329.414062 351.101562 330.972656 350.996094 332.429688 352.238281 C 334.667969 354.226562 336.726562 356.429688 339.070312 358.273438 C 347.480469 364.984375 359.445312 361.824219 363.421875 351.8125 C 365.160156 347.445312 365.054688 343.292969 361.292969 339.8125 C 360.296875 338.890625 359.339844 337.898438 358.414062 336.902344 C 353.480469 331.402344 353.269531 327.851562 357.527344 321.566406 C 358.59375 320.003906 359.941406 318.621094 361.007812 317.023438 C 364.664062 311.449219 364.378906 304.101562 360.191406 298.847656 C 358.664062 296.929688 356.855469 295.261719 355.113281 293.558594 C 352.84375 291.355469 351.742188 288.660156 351.601562 285.535156 C 351.421875 280.457031 352.558594 275.84375 356.25 272.082031 C 357.777344 270.519531 359.269531 268.921875 360.511719 267.144531 C 364.238281 261.855469 364.167969 255.644531 360.332031 250.390625 C 359.195312 248.863281 357.8125 247.550781 356.535156 246.128906 C 353.90625 243.289062 353.160156 240.058594 354.367188 236.332031 C 356.039062 231.113281 358.523438 226.285156 361.574219 221.742188 Z M 351.492188 218.261719 C 348.546875 222.558594 346.238281 227.207031 344.394531 232.035156 C 343.613281 234.058594 343.007812 236.191406 342.691406 238.320312 C 342.085938 242.261719 342.972656 245.847656 345.921875 248.828125 C 347.625 250.566406 349.222656 252.484375 350.5 254.542969 C 352.949219 258.449219 352.699219 260.507812 349.789062 264.164062 C 348.761719 265.441406 347.589844 266.578125 346.628906 267.890625 C 343.222656 272.613281 340.878906 277.796875 340.453125 283.652344 C 340.027344 289.441406 341.730469 294.445312 346.203125 298.242188 C 348.296875 300.019531 350.25 301.863281 351.847656 304.101562 C 354.050781 307.191406 354.121094 309.035156 352.027344 312.300781 C 351.136719 313.6875 349.96875 314.859375 349.113281 316.242188 C 347.835938 318.300781 346.488281 320.394531 345.53125 322.632812 C 342.335938 329.980469 343.789062 336.441406 349.683594 341.910156 C 350.464844 342.652344 351.386719 343.257812 352.0625 344.109375 C 354.050781 346.488281 353.941406 348.652344 351.953125 350.605469 C 349.578125 352.914062 347.234375 352.949219 344.820312 350.675781 C 343.433594 349.363281 342.261719 347.835938 340.808594 346.59375 C 333.957031 340.59375 327.53125 340.488281 320.289062 346.167969 C 319.046875 347.164062 318.015625 348.511719 315.921875 348.832031 C 315.390625 348.121094 314.679688 347.339844 314.078125 346.488281 C 313.472656 345.601562 313.082031 344.464844 312.335938 343.753906 C 307.472656 339.105469 300.445312 336.726562 296.574219 345.316406 C 295.792969 347.054688 294.871094 348.722656 293.84375 350.359375 C 292.351562 352.734375 290.148438 352.808594 288.835938 350.359375 C 286.953125 346.914062 284.363281 344.179688 281.558594 341.589844 C 278.078125 338.359375 274.316406 338.179688 270.484375 340.914062 C 268.28125 342.511719 266.257812 344.394531 264.023438 345.921875 C 257.953125 350.109375 249.253906 349.789062 243.433594 345.28125 C 241.941406 344.109375 240.628906 342.691406 239.171875 341.445312 C 236.4375 339.140625 233.421875 338.605469 230.085938 340.167969 C 226.355469 341.945312 222.808594 343.933594 219.859375 346.808594 C 215.601562 351.03125 210.84375 351.386719 205.660156 348.796875 C 202.75 347.339844 199.804688 345.957031 196.964844 344.359375 C 192.382812 341.835938 188.160156 342.085938 184.148438 345.492188 C 183.507812 346.027344 182.90625 346.558594 182.300781 347.089844 C 172.503906 355.078125 161 354.226562 152.660156 344.890625 C 152.125 344.285156 151.664062 343.578125 151.0625 343.042969 C 146.835938 338.996094 143.605469 338.679688 138.777344 342.121094 C 136.363281 343.859375 133.988281 345.707031 131.964844 347.871094 C 128.695312 351.316406 124.96875 351.777344 120.746094 350.394531 C 118.402344 349.648438 116.164062 348.652344 114.25 347.019531 C 112.792969 345.8125 111.230469 344.675781 109.777344 343.433594 C 104.769531 339.140625 101.042969 338.394531 92.734375 343.152344 C 89.683594 344.890625 86.949219 347.199219 84.179688 349.398438 C 79.496094 353.125 74.84375 353.410156 69.980469 349.789062 C 69.339844 349.292969 68.632812 348.902344 67.921875 348.476562 C 59.648438 343.507812 54.644531 344.074219 47.402344 350.570312 C 45.804688 352.027344 44.066406 353.410156 42.21875 354.511719 C 38.136719 356.960938 33.769531 356.746094 29.722656 354.617188 C 25.394531 352.382812 24.683594 350.109375 28.550781 346.523438 C 29.9375 345.246094 31.429688 343.96875 32.636719 342.546875 C 34.976562 339.847656 35.050781 337.363281 32.847656 334.417969 C 31.535156 332.679688 29.9375 331.1875 28.515625 329.519531 C 27.273438 327.992188 27.453125 326.5 29.015625 325.292969 C 31.820312 323.128906 34.835938 321.210938 37.5 318.941406 C 41.261719 315.746094 42.148438 311.769531 40.230469 307.191406 C 38.953125 304.136719 36.964844 301.546875 34.730469 299.132812 C 33.238281 297.535156 31.746094 295.9375 30.46875 294.195312 C 28.730469 291.890625 28.835938 291.285156 31.039062 288.695312 C 34.621094 284.46875 37.179688 279.925781 37.390625 274.105469 C 37.605469 268.851562 36.078125 264.484375 32.847656 260.578125 C 31.996094 259.511719 31 258.554688 30.148438 257.527344 C 26.101562 252.554688 26.136719 250.746094 30.46875 246.414062 C 31.25 245.632812 32.171875 245.066406 32.953125 244.320312 C 40.410156 237.253906 38.988281 228.699219 35.652344 222.664062 C 33.949219 219.578125 31.855469 216.738281 29.261719 214.214844 C 25.710938 210.738281 25.570312 208.925781 28.304688 205.058594 C 30.363281 202.144531 32.777344 199.554688 35.757812 197.53125 C 43.390625 192.417969 43.144531 181.273438 36.964844 175.378906 C 35.191406 173.710938 33.238281 172.183594 31.429688 170.515625 C 27.488281 166.859375 27.308594 165.9375 29.972656 161.464844 C 30.929688 159.832031 32.066406 158.304688 33.167969 156.742188 C 35.4375 153.511719 36.503906 149.925781 36.363281 145.984375 C 36.292969 144.070312 36.113281 142.152344 36.183594 140.269531 C 36.398438 135.726562 35.402344 131.574219 32.207031 128.199219 C 30.113281 125.964844 30.503906 123.871094 32.066406 121.597656 C 34.871094 117.585938 37.640625 113.644531 38.457031 108.535156 C 39.449219 102.25 38.667969 96.890625 34.195312 91.882812 C 28.410156 85.421875 28.660156 84.855469 33.34375 77.753906 C 35.011719 75.234375 36.824219 72.890625 37.285156 69.804688 C 38.316406 62.988281 37.960938 56.738281 31.285156 52.550781 C 28.941406 51.09375 27.34375 48.789062 26.175781 46.300781 C 24.71875 43.214844 24.292969 40.339844 26.03125 36.964844 C 27.664062 33.878906 29.261719 30.824219 31.179688 27.914062 C 32.8125 25.464844 34.976562 25.003906 37.535156 25.5 C 39.414062 25.855469 41.121094 26.707031 42.609375 28.019531 C 44.457031 29.617188 46.375 31.144531 48.324219 32.671875 C 50.738281 34.550781 53.542969 35.582031 56.5625 36.042969 C 59.792969 36.503906 62.488281 35.617188 64.511719 32.988281 C 66.003906 31.039062 67.316406 28.941406 69.023438 27.203125 C 72.179688 23.902344 74.808594 23.867188 78.109375 26.953125 C 82.335938 30.894531 86.808594 34.304688 92.203125 36.539062 C 97.953125 38.917969 102.851562 37.890625 107.113281 33.558594 C 108.460938 32.207031 109.742188 30.789062 111.019531 29.367188 C 112.933594 27.238281 115.457031 26.28125 118.082031 25.464844 C 120.355469 24.71875 122.414062 25.214844 124.117188 26.847656 C 125.324219 27.949219 126.390625 29.191406 127.597656 30.328125 C 128.980469 31.640625 130.332031 32.988281 131.855469 34.125 C 138.105469 38.8125 142.753906 38.847656 148.894531 34.125 C 151.0625 32.492188 152.980469 30.503906 155.109375 28.800781 C 158.695312 25.960938 159.867188 26.03125 163.59375 29.121094 C 166.113281 31.214844 168.5625 33.308594 171.511719 34.835938 C 175.414062 36.859375 179.320312 37.179688 183.296875 35.367188 C 185.746094 34.230469 188.125 32.847656 190.429688 31.429688 C 192.277344 30.292969 193.980469 28.871094 195.863281 27.769531 C 200.050781 25.359375 203.742188 25.640625 206.867188 29.226562 C 211.625 34.695312 218.296875 37.390625 223.871094 41.652344 C 229.339844 45.804688 234.769531 44.847656 239.632812 39.058594 C 241.550781 36.789062 243.113281 34.195312 245.03125 31.890625 C 246.554688 30.042969 248.082031 29.9375 249.929688 31.640625 C 253.335938 34.835938 256.851562 37.746094 261.148438 39.699219 C 262.921875 40.515625 264.660156 41.121094 266.613281 41.261719 C 270.625 41.582031 274.070312 40.730469 276.800781 37.355469 C 279.039062 34.621094 281.59375 32.136719 284.257812 29.832031 C 287.308594 27.203125 288.269531 27.34375 291.390625 29.617188 C 294.054688 31.535156 296.574219 33.628906 299.378906 35.261719 C 301.9375 36.789062 304.703125 38.066406 307.507812 38.988281 C 311.449219 40.304688 315 39.523438 317.910156 36.257812 C 319.542969 34.410156 321.210938 32.636719 323.058594 31.039062 C 325.1875 29.226562 326.535156 29.367188 328.773438 31.214844 C 330.441406 32.597656 332.003906 34.160156 333.777344 35.402344 C 338.75 38.847656 343.789062 39.449219 348.796875 35.476562 C 349.648438 34.800781 350.429688 34.019531 351.351562 33.453125 C 353.089844 32.386719 355.46875 33.453125 355.71875 35.546875 C 355.859375 36.859375 355.753906 38.242188 355.539062 39.558594 C 355.113281 42.328125 353.480469 44.5625 351.992188 46.835938 C 349.753906 50.3125 348.261719 54.042969 347.554688 58.160156 C 346.949219 61.636719 347.589844 64.65625 349.929688 67.28125 C 351.742188 69.304688 353.660156 71.292969 355.328125 73.425781 C 357.421875 76.121094 357.207031 78.179688 354.757812 80.558594 C 353.585938 81.695312 352.308594 82.726562 351.101562 83.824219 C 346.347656 88.015625 344.109375 93.410156 343.648438 99.660156 C 343.152344 106.402344 345.210938 111.976562 350.535156 116.273438 C 352.238281 117.65625 353.941406 119.003906 355.539062 120.460938 C 356.925781 121.738281 357.136719 123.40625 355.964844 124.863281 C 353.550781 127.773438 351.457031 130.933594 348.652344 133.5625 C 341.019531 140.589844 342.085938 152.730469 350.640625 158.90625 C 353.871094 161.25 354.296875 162.316406 351.882812 165.476562 C 348.511719 169.839844 345.882812 174.5625 343.894531 179.675781 C 340.84375 187.554688 342.796875 196.253906 349.042969 202.003906 C 350.25 203.105469 351.636719 203.992188 352.878906 205.058594 C 356.464844 208.074219 356.78125 210.097656 354.191406 214.179688 C 353.304688 215.566406 352.273438 216.808594 351.351562 218.191406 Z M 351.492188 218.261719 " fill-opacity="1" fill-rule="nonzero"/></g></svg>